<mxfile host="app.diagrams.net" modified="2023-10-23T17:26:10.095Z" agent="Mozilla/5.0 (Windows NT 10.0; Win64; x64) AppleWebKit/537.36 (KHTML, like Gecko) Chrome/118.0.0.0 Safari/537.36" etag="trTBQ3rzLtr7WWEfLT6d" version="22.0.6" type="device">
  <diagram name="PÃ¡gina-1" id="Zf-4-D0mTlgxKjUDw5eM">
    <mxGraphModel dx="1434" dy="772" grid="1" gridSize="10" guides="1" tooltips="1" connect="1" arrows="1" fold="1" page="1" pageScale="1" pageWidth="827" pageHeight="1169" math="0" shadow="0">
      <root>
        <mxCell id="0" />
        <mxCell id="1" parent="0" />
        <mxCell id="k8Ekjxk7Mpu5mIQkRaKN-1" value="MenuItem" style="swimlane;fontStyle=1;align=center;verticalAlign=top;childLayout=stackLayout;horizontal=1;startSize=25.818181818181817;horizontalStack=0;resizeParent=1;resizeParentMax=0;resizeLast=0;collapsible=0;marginBottom=0;" vertex="1" parent="1">
          <mxGeometry x="100" y="404" width="127" height="142.8181818181818" as="geometry" />
        </mxCell>
        <mxCell id="k8Ekjxk7Mpu5mIQkRaKN-2" value="+title String" style="text;strokeColor=none;fillColor=none;align=left;verticalAlign=top;spacingLeft=4;spacingRight=4;overflow=hidden;rotatable=0;points=[[0,0.5],[1,0.5]];portConstraint=eastwest;" vertex="1" parent="k8Ekjxk7Mpu5mIQkRaKN-1">
          <mxGeometry y="25.818181818181817" width="127" height="26" as="geometry" />
        </mxCell>
        <mxCell id="k8Ekjxk7Mpu5mIQkRaKN-3" value="+subTitle String" style="text;strokeColor=none;fillColor=none;align=left;verticalAlign=top;spacingLeft=4;spacingRight=4;overflow=hidden;rotatable=0;points=[[0,0.5],[1,0.5]];portConstraint=eastwest;" vertex="1" parent="k8Ekjxk7Mpu5mIQkRaKN-1">
          <mxGeometry y="51.81818181818181" width="127" height="26" as="geometry" />
        </mxCell>
        <mxCell id="k8Ekjxk7Mpu5mIQkRaKN-4" value="+link String" style="text;strokeColor=none;fillColor=none;align=left;verticalAlign=top;spacingLeft=4;spacingRight=4;overflow=hidden;rotatable=0;points=[[0,0.5],[1,0.5]];portConstraint=eastwest;" vertex="1" parent="k8Ekjxk7Mpu5mIQkRaKN-1">
          <mxGeometry y="77.81818181818181" width="127" height="26" as="geometry" />
        </mxCell>
        <mxCell id="k8Ekjxk7Mpu5mIQkRaKN-5" value="+icon IconData" style="text;strokeColor=none;fillColor=none;align=left;verticalAlign=top;spacingLeft=4;spacingRight=4;overflow=hidden;rotatable=0;points=[[0,0.5],[1,0.5]];portConstraint=eastwest;" vertex="1" parent="k8Ekjxk7Mpu5mIQkRaKN-1">
          <mxGeometry y="103.81818181818181" width="127" height="26" as="geometry" />
        </mxCell>
        <mxCell id="k8Ekjxk7Mpu5mIQkRaKN-6" style="line;strokeWidth=1;fillColor=none;align=left;verticalAlign=middle;spacingTop=-1;spacingLeft=3;spacingRight=3;rotatable=0;labelPosition=right;points=[];portConstraint=eastwest;strokeColor=inherit;" vertex="1" parent="k8Ekjxk7Mpu5mIQkRaKN-1">
          <mxGeometry y="129.8181818181818" width="127" height="13" as="geometry" />
        </mxCell>
        <mxCell id="k8Ekjxk7Mpu5mIQkRaKN-7" value="IconData" style="swimlane;fontStyle=1;align=center;verticalAlign=top;childLayout=stackLayout;horizontal=1;startSize=25;horizontalStack=0;resizeParent=1;resizeParentMax=0;resizeLast=0;collapsible=0;marginBottom=0;" vertex="1" parent="1">
          <mxGeometry x="641" y="627" width="80" height="38" as="geometry" />
        </mxCell>
        <mxCell id="k8Ekjxk7Mpu5mIQkRaKN-8" style="line;strokeWidth=1;fillColor=none;align=left;verticalAlign=middle;spacingTop=-1;spacingLeft=3;spacingRight=3;rotatable=0;labelPosition=right;points=[];portConstraint=eastwest;strokeColor=inherit;" vertex="1" parent="k8Ekjxk7Mpu5mIQkRaKN-7">
          <mxGeometry y="25" width="80" height="13" as="geometry" />
        </mxCell>
        <mxCell id="k8Ekjxk7Mpu5mIQkRaKN-9" value="AppTheme" style="swimlane;fontStyle=1;align=center;verticalAlign=top;childLayout=stackLayout;horizontal=1;startSize=26.857142857142858;horizontalStack=0;resizeParent=1;resizeParentMax=0;resizeLast=0;collapsible=0;marginBottom=0;" vertex="1" parent="1">
          <mxGeometry x="20" y="78" width="254" height="196.85714285714286" as="geometry" />
        </mxCell>
        <mxCell id="k8Ekjxk7Mpu5mIQkRaKN-10" value="+selectedColor int" style="text;strokeColor=none;fillColor=none;align=left;verticalAlign=top;spacingLeft=4;spacingRight=4;overflow=hidden;rotatable=0;points=[[0,0.5],[1,0.5]];portConstraint=eastwest;" vertex="1" parent="k8Ekjxk7Mpu5mIQkRaKN-9">
          <mxGeometry y="26.857142857142858" width="254" height="27" as="geometry" />
        </mxCell>
        <mxCell id="k8Ekjxk7Mpu5mIQkRaKN-11" value="+isDarkmode bool" style="text;strokeColor=none;fillColor=none;align=left;verticalAlign=top;spacingLeft=4;spacingRight=4;overflow=hidden;rotatable=0;points=[[0,0.5],[1,0.5]];portConstraint=eastwest;" vertex="1" parent="k8Ekjxk7Mpu5mIQkRaKN-9">
          <mxGeometry y="53.85714285714286" width="254" height="27" as="geometry" />
        </mxCell>
        <mxCell id="k8Ekjxk7Mpu5mIQkRaKN-12" style="line;strokeWidth=1;fillColor=none;align=left;verticalAlign=middle;spacingTop=-1;spacingLeft=3;spacingRight=3;rotatable=0;labelPosition=right;points=[];portConstraint=eastwest;strokeColor=inherit;" vertex="1" parent="k8Ekjxk7Mpu5mIQkRaKN-9">
          <mxGeometry y="80.85714285714286" width="254" height="8" as="geometry" />
        </mxCell>
        <mxCell id="k8Ekjxk7Mpu5mIQkRaKN-13" value="+getTheme() ThemeData" style="text;strokeColor=none;fillColor=none;align=left;verticalAlign=top;spacingLeft=4;spacingRight=4;overflow=hidden;rotatable=0;points=[[0,0.5],[1,0.5]];portConstraint=eastwest;" vertex="1" parent="k8Ekjxk7Mpu5mIQkRaKN-9">
          <mxGeometry y="88.85714285714286" width="254" height="27" as="geometry" />
        </mxCell>
        <mxCell id="k8Ekjxk7Mpu5mIQkRaKN-14" value="+darkTheme() ThemeData" style="text;strokeColor=none;fillColor=none;align=left;verticalAlign=top;spacingLeft=4;spacingRight=4;overflow=hidden;rotatable=0;points=[[0,0.5],[1,0.5]];portConstraint=eastwest;" vertex="1" parent="k8Ekjxk7Mpu5mIQkRaKN-9">
          <mxGeometry y="115.85714285714286" width="254" height="27" as="geometry" />
        </mxCell>
        <mxCell id="k8Ekjxk7Mpu5mIQkRaKN-15" value="-_appBarTheme() AppBarTheme" style="text;strokeColor=none;fillColor=none;align=left;verticalAlign=top;spacingLeft=4;spacingRight=4;overflow=hidden;rotatable=0;points=[[0,0.5],[1,0.5]];portConstraint=eastwest;" vertex="1" parent="k8Ekjxk7Mpu5mIQkRaKN-9">
          <mxGeometry y="142.85714285714286" width="254" height="27" as="geometry" />
        </mxCell>
        <mxCell id="k8Ekjxk7Mpu5mIQkRaKN-16" value="+copyWith() AppTheme" style="text;strokeColor=none;fillColor=none;align=left;verticalAlign=top;spacingLeft=4;spacingRight=4;overflow=hidden;rotatable=0;points=[[0,0.5],[1,0.5]];portConstraint=eastwest;" vertex="1" parent="k8Ekjxk7Mpu5mIQkRaKN-9">
          <mxGeometry y="169.85714285714286" width="254" height="27" as="geometry" />
        </mxCell>
        <mxCell id="k8Ekjxk7Mpu5mIQkRaKN-17" value="MyApp" style="swimlane;fontStyle=1;align=center;verticalAlign=top;childLayout=stackLayout;horizontal=1;startSize=29.2;horizontalStack=0;resizeParent=1;resizeParentMax=0;resizeLast=0;collapsible=0;marginBottom=0;" vertex="1" parent="1">
          <mxGeometry x="1032" y="439" width="137" height="66.2" as="geometry" />
        </mxCell>
        <mxCell id="k8Ekjxk7Mpu5mIQkRaKN-18" style="line;strokeWidth=1;fillColor=none;align=left;verticalAlign=middle;spacingTop=-1;spacingLeft=3;spacingRight=3;rotatable=0;labelPosition=right;points=[];portConstraint=eastwest;strokeColor=inherit;" vertex="1" parent="k8Ekjxk7Mpu5mIQkRaKN-17">
          <mxGeometry y="29.2" width="137" height="8" as="geometry" />
        </mxCell>
        <mxCell id="k8Ekjxk7Mpu5mIQkRaKN-19" value="+build() Widget" style="text;strokeColor=none;fillColor=none;align=left;verticalAlign=top;spacingLeft=4;spacingRight=4;overflow=hidden;rotatable=0;points=[[0,0.5],[1,0.5]];portConstraint=eastwest;" vertex="1" parent="k8Ekjxk7Mpu5mIQkRaKN-17">
          <mxGeometry y="37.2" width="137" height="29" as="geometry" />
        </mxCell>
        <mxCell id="k8Ekjxk7Mpu5mIQkRaKN-20" value="ConsumerWidget" style="swimlane;fontStyle=1;align=center;verticalAlign=top;childLayout=stackLayout;horizontal=1;startSize=25;horizontalStack=0;resizeParent=1;resizeParentMax=0;resizeLast=0;collapsible=0;marginBottom=0;" vertex="1" parent="1">
          <mxGeometry x="936" y="147" width="142" height="38" as="geometry" />
        </mxCell>
        <mxCell id="k8Ekjxk7Mpu5mIQkRaKN-21" style="line;strokeWidth=1;fillColor=none;align=left;verticalAlign=middle;spacingTop=-1;spacingLeft=3;spacingRight=3;rotatable=0;labelPosition=right;points=[];portConstraint=eastwest;strokeColor=inherit;" vertex="1" parent="k8Ekjxk7Mpu5mIQkRaKN-20">
          <mxGeometry y="25" width="142" height="13" as="geometry" />
        </mxCell>
        <mxCell id="k8Ekjxk7Mpu5mIQkRaKN-22" value="Team" style="swimlane;fontStyle=1;align=center;verticalAlign=top;childLayout=stackLayout;horizontal=1;startSize=24.347826086956523;horizontalStack=0;resizeParent=1;resizeParentMax=0;resizeLast=0;collapsible=0;marginBottom=0;" vertex="1" parent="1">
          <mxGeometry x="487" y="32" width="125" height="276.3478260869565" as="geometry" />
        </mxCell>
        <mxCell id="k8Ekjxk7Mpu5mIQkRaKN-23" value="+position int" style="text;strokeColor=none;fillColor=none;align=left;verticalAlign=top;spacingLeft=4;spacingRight=4;overflow=hidden;rotatable=0;points=[[0,0.5],[1,0.5]];portConstraint=eastwest;" vertex="1" parent="k8Ekjxk7Mpu5mIQkRaKN-22">
          <mxGeometry y="24.347826086956523" width="125" height="24" as="geometry" />
        </mxCell>
        <mxCell id="k8Ekjxk7Mpu5mIQkRaKN-24" value="+name String" style="text;strokeColor=none;fillColor=none;align=left;verticalAlign=top;spacingLeft=4;spacingRight=4;overflow=hidden;rotatable=0;points=[[0,0.5],[1,0.5]];portConstraint=eastwest;" vertex="1" parent="k8Ekjxk7Mpu5mIQkRaKN-22">
          <mxGeometry y="48.34782608695652" width="125" height="24" as="geometry" />
        </mxCell>
        <mxCell id="k8Ekjxk7Mpu5mIQkRaKN-25" value="+product String" style="text;strokeColor=none;fillColor=none;align=left;verticalAlign=top;spacingLeft=4;spacingRight=4;overflow=hidden;rotatable=0;points=[[0,0.5],[1,0.5]];portConstraint=eastwest;" vertex="1" parent="k8Ekjxk7Mpu5mIQkRaKN-22">
          <mxGeometry y="72.34782608695653" width="125" height="24" as="geometry" />
        </mxCell>
        <mxCell id="k8Ekjxk7Mpu5mIQkRaKN-26" value="+points int" style="text;strokeColor=none;fillColor=none;align=left;verticalAlign=top;spacingLeft=4;spacingRight=4;overflow=hidden;rotatable=0;points=[[0,0.5],[1,0.5]];portConstraint=eastwest;" vertex="1" parent="k8Ekjxk7Mpu5mIQkRaKN-22">
          <mxGeometry y="96.34782608695653" width="125" height="24" as="geometry" />
        </mxCell>
        <mxCell id="k8Ekjxk7Mpu5mIQkRaKN-27" value="+played int" style="text;strokeColor=none;fillColor=none;align=left;verticalAlign=top;spacingLeft=4;spacingRight=4;overflow=hidden;rotatable=0;points=[[0,0.5],[1,0.5]];portConstraint=eastwest;" vertex="1" parent="k8Ekjxk7Mpu5mIQkRaKN-22">
          <mxGeometry y="120.34782608695653" width="125" height="24" as="geometry" />
        </mxCell>
        <mxCell id="k8Ekjxk7Mpu5mIQkRaKN-28" value="+won int" style="text;strokeColor=none;fillColor=none;align=left;verticalAlign=top;spacingLeft=4;spacingRight=4;overflow=hidden;rotatable=0;points=[[0,0.5],[1,0.5]];portConstraint=eastwest;" vertex="1" parent="k8Ekjxk7Mpu5mIQkRaKN-22">
          <mxGeometry y="144.34782608695653" width="125" height="24" as="geometry" />
        </mxCell>
        <mxCell id="k8Ekjxk7Mpu5mIQkRaKN-29" value="+drawn int" style="text;strokeColor=none;fillColor=none;align=left;verticalAlign=top;spacingLeft=4;spacingRight=4;overflow=hidden;rotatable=0;points=[[0,0.5],[1,0.5]];portConstraint=eastwest;" vertex="1" parent="k8Ekjxk7Mpu5mIQkRaKN-22">
          <mxGeometry y="168.34782608695653" width="125" height="24" as="geometry" />
        </mxCell>
        <mxCell id="k8Ekjxk7Mpu5mIQkRaKN-30" value="+lost int" style="text;strokeColor=none;fillColor=none;align=left;verticalAlign=top;spacingLeft=4;spacingRight=4;overflow=hidden;rotatable=0;points=[[0,0.5],[1,0.5]];portConstraint=eastwest;" vertex="1" parent="k8Ekjxk7Mpu5mIQkRaKN-22">
          <mxGeometry y="192.34782608695653" width="125" height="24" as="geometry" />
        </mxCell>
        <mxCell id="k8Ekjxk7Mpu5mIQkRaKN-31" value="+against int" style="text;strokeColor=none;fillColor=none;align=left;verticalAlign=top;spacingLeft=4;spacingRight=4;overflow=hidden;rotatable=0;points=[[0,0.5],[1,0.5]];portConstraint=eastwest;" vertex="1" parent="k8Ekjxk7Mpu5mIQkRaKN-22">
          <mxGeometry y="216.34782608695653" width="125" height="24" as="geometry" />
        </mxCell>
        <mxCell id="k8Ekjxk7Mpu5mIQkRaKN-32" value="+gd int" style="text;strokeColor=none;fillColor=none;align=left;verticalAlign=top;spacingLeft=4;spacingRight=4;overflow=hidden;rotatable=0;points=[[0,0.5],[1,0.5]];portConstraint=eastwest;" vertex="1" parent="k8Ekjxk7Mpu5mIQkRaKN-22">
          <mxGeometry y="240.34782608695653" width="125" height="24" as="geometry" />
        </mxCell>
        <mxCell id="k8Ekjxk7Mpu5mIQkRaKN-33" style="line;strokeWidth=1;fillColor=none;align=left;verticalAlign=middle;spacingTop=-1;spacingLeft=3;spacingRight=3;rotatable=0;labelPosition=right;points=[];portConstraint=eastwest;strokeColor=inherit;" vertex="1" parent="k8Ekjxk7Mpu5mIQkRaKN-22">
          <mxGeometry y="264.3478260869565" width="125" height="12" as="geometry" />
        </mxCell>
        <mxCell id="k8Ekjxk7Mpu5mIQkRaKN-34" value="Team_adminusers" style="swimlane;fontStyle=1;align=center;verticalAlign=top;childLayout=stackLayout;horizontal=1;startSize=24.24;horizontalStack=0;resizeParent=1;resizeParentMax=0;resizeLast=0;collapsible=0;marginBottom=0;" vertex="1" parent="1">
          <mxGeometry x="662" y="20" width="224" height="300.24" as="geometry" />
        </mxCell>
        <mxCell id="k8Ekjxk7Mpu5mIQkRaKN-35" value="+position int" style="text;strokeColor=none;fillColor=none;align=left;verticalAlign=top;spacingLeft=4;spacingRight=4;overflow=hidden;rotatable=0;points=[[0,0.5],[1,0.5]];portConstraint=eastwest;" vertex="1" parent="k8Ekjxk7Mpu5mIQkRaKN-34">
          <mxGeometry y="24.24" width="224" height="24" as="geometry" />
        </mxCell>
        <mxCell id="k8Ekjxk7Mpu5mIQkRaKN-36" value="+name String" style="text;strokeColor=none;fillColor=none;align=left;verticalAlign=top;spacingLeft=4;spacingRight=4;overflow=hidden;rotatable=0;points=[[0,0.5],[1,0.5]];portConstraint=eastwest;" vertex="1" parent="k8Ekjxk7Mpu5mIQkRaKN-34">
          <mxGeometry y="48.239999999999995" width="224" height="24" as="geometry" />
        </mxCell>
        <mxCell id="k8Ekjxk7Mpu5mIQkRaKN-37" value="+points String" style="text;strokeColor=none;fillColor=none;align=left;verticalAlign=top;spacingLeft=4;spacingRight=4;overflow=hidden;rotatable=0;points=[[0,0.5],[1,0.5]];portConstraint=eastwest;" vertex="1" parent="k8Ekjxk7Mpu5mIQkRaKN-34">
          <mxGeometry y="72.24" width="224" height="24" as="geometry" />
        </mxCell>
        <mxCell id="k8Ekjxk7Mpu5mIQkRaKN-38" value="+played int" style="text;strokeColor=none;fillColor=none;align=left;verticalAlign=top;spacingLeft=4;spacingRight=4;overflow=hidden;rotatable=0;points=[[0,0.5],[1,0.5]];portConstraint=eastwest;" vertex="1" parent="k8Ekjxk7Mpu5mIQkRaKN-34">
          <mxGeometry y="96.24" width="224" height="24" as="geometry" />
        </mxCell>
        <mxCell id="k8Ekjxk7Mpu5mIQkRaKN-39" value="+won String" style="text;strokeColor=none;fillColor=none;align=left;verticalAlign=top;spacingLeft=4;spacingRight=4;overflow=hidden;rotatable=0;points=[[0,0.5],[1,0.5]];portConstraint=eastwest;" vertex="1" parent="k8Ekjxk7Mpu5mIQkRaKN-34">
          <mxGeometry y="120.24" width="224" height="24" as="geometry" />
        </mxCell>
        <mxCell id="k8Ekjxk7Mpu5mIQkRaKN-40" value="+drawn int" style="text;strokeColor=none;fillColor=none;align=left;verticalAlign=top;spacingLeft=4;spacingRight=4;overflow=hidden;rotatable=0;points=[[0,0.5],[1,0.5]];portConstraint=eastwest;" vertex="1" parent="k8Ekjxk7Mpu5mIQkRaKN-34">
          <mxGeometry y="144.24" width="224" height="24" as="geometry" />
        </mxCell>
        <mxCell id="k8Ekjxk7Mpu5mIQkRaKN-41" value="+lost String" style="text;strokeColor=none;fillColor=none;align=left;verticalAlign=top;spacingLeft=4;spacingRight=4;overflow=hidden;rotatable=0;points=[[0,0.5],[1,0.5]];portConstraint=eastwest;" vertex="1" parent="k8Ekjxk7Mpu5mIQkRaKN-34">
          <mxGeometry y="168.24" width="224" height="24" as="geometry" />
        </mxCell>
        <mxCell id="k8Ekjxk7Mpu5mIQkRaKN-42" value="+against int" style="text;strokeColor=none;fillColor=none;align=left;verticalAlign=top;spacingLeft=4;spacingRight=4;overflow=hidden;rotatable=0;points=[[0,0.5],[1,0.5]];portConstraint=eastwest;" vertex="1" parent="k8Ekjxk7Mpu5mIQkRaKN-34">
          <mxGeometry y="192.24" width="224" height="24" as="geometry" />
        </mxCell>
        <mxCell id="k8Ekjxk7Mpu5mIQkRaKN-43" value="+gd int" style="text;strokeColor=none;fillColor=none;align=left;verticalAlign=top;spacingLeft=4;spacingRight=4;overflow=hidden;rotatable=0;points=[[0,0.5],[1,0.5]];portConstraint=eastwest;" vertex="1" parent="k8Ekjxk7Mpu5mIQkRaKN-34">
          <mxGeometry y="216.24" width="224" height="24" as="geometry" />
        </mxCell>
        <mxCell id="k8Ekjxk7Mpu5mIQkRaKN-44" value="+valueNonBlocked double?" style="text;strokeColor=none;fillColor=none;align=left;verticalAlign=top;spacingLeft=4;spacingRight=4;overflow=hidden;rotatable=0;points=[[0,0.5],[1,0.5]];portConstraint=eastwest;" vertex="1" parent="k8Ekjxk7Mpu5mIQkRaKN-34">
          <mxGeometry y="240.24" width="224" height="24" as="geometry" />
        </mxCell>
        <mxCell id="k8Ekjxk7Mpu5mIQkRaKN-45" value="+valueAdminGranted double?" style="text;strokeColor=none;fillColor=none;align=left;verticalAlign=top;spacingLeft=4;spacingRight=4;overflow=hidden;rotatable=0;points=[[0,0.5],[1,0.5]];portConstraint=eastwest;" vertex="1" parent="k8Ekjxk7Mpu5mIQkRaKN-34">
          <mxGeometry y="264.24" width="224" height="24" as="geometry" />
        </mxCell>
        <mxCell id="k8Ekjxk7Mpu5mIQkRaKN-46" style="line;strokeWidth=1;fillColor=none;align=left;verticalAlign=middle;spacingTop=-1;spacingLeft=3;spacingRight=3;rotatable=0;labelPosition=right;points=[];portConstraint=eastwest;strokeColor=inherit;" vertex="1" parent="k8Ekjxk7Mpu5mIQkRaKN-34">
          <mxGeometry y="288.24" width="224" height="12" as="geometry" />
        </mxCell>
        <mxCell id="k8Ekjxk7Mpu5mIQkRaKN-47" value="ThemeNotifier" style="swimlane;fontStyle=1;align=center;verticalAlign=top;childLayout=stackLayout;horizontal=1;startSize=27.428571428571427;horizontalStack=0;resizeParent=1;resizeParentMax=0;resizeLast=0;collapsible=0;marginBottom=0;" vertex="1" parent="1">
          <mxGeometry x="277" y="427" width="208" height="89.42857142857143" as="geometry" />
        </mxCell>
        <mxCell id="k8Ekjxk7Mpu5mIQkRaKN-48" style="line;strokeWidth=1;fillColor=none;align=left;verticalAlign=middle;spacingTop=-1;spacingLeft=3;spacingRight=3;rotatable=0;labelPosition=right;points=[];portConstraint=eastwest;strokeColor=inherit;" vertex="1" parent="k8Ekjxk7Mpu5mIQkRaKN-47">
          <mxGeometry y="27.428571428571427" width="208" height="8" as="geometry" />
        </mxCell>
        <mxCell id="k8Ekjxk7Mpu5mIQkRaKN-49" value="+toggleDarkmode() void" style="text;strokeColor=none;fillColor=none;align=left;verticalAlign=top;spacingLeft=4;spacingRight=4;overflow=hidden;rotatable=0;points=[[0,0.5],[1,0.5]];portConstraint=eastwest;" vertex="1" parent="k8Ekjxk7Mpu5mIQkRaKN-47">
          <mxGeometry y="35.42857142857143" width="208" height="27" as="geometry" />
        </mxCell>
        <mxCell id="k8Ekjxk7Mpu5mIQkRaKN-50" value="+changeColorIndex() void" style="text;strokeColor=none;fillColor=none;align=left;verticalAlign=top;spacingLeft=4;spacingRight=4;overflow=hidden;rotatable=0;points=[[0,0.5],[1,0.5]];portConstraint=eastwest;" vertex="1" parent="k8Ekjxk7Mpu5mIQkRaKN-47">
          <mxGeometry y="62.42857142857143" width="208" height="27" as="geometry" />
        </mxCell>
        <mxCell id="k8Ekjxk7Mpu5mIQkRaKN-51" value="StateNotifier" style="swimlane;fontStyle=1;align=center;verticalAlign=top;childLayout=stackLayout;horizontal=1;startSize=25;horizontalStack=0;resizeParent=1;resizeParentMax=0;resizeLast=0;collapsible=0;marginBottom=0;" vertex="1" parent="1">
          <mxGeometry x="324" y="147" width="112" height="38" as="geometry" />
        </mxCell>
        <mxCell id="k8Ekjxk7Mpu5mIQkRaKN-52" style="line;strokeWidth=1;fillColor=none;align=left;verticalAlign=middle;spacingTop=-1;spacingLeft=3;spacingRight=3;rotatable=0;labelPosition=right;points=[];portConstraint=eastwest;strokeColor=inherit;" vertex="1" parent="k8Ekjxk7Mpu5mIQkRaKN-51">
          <mxGeometry y="25" width="112" height="13" as="geometry" />
        </mxCell>
        <mxCell id="k8Ekjxk7Mpu5mIQkRaKN-53" value="InputScreen" style="swimlane;fontStyle=1;align=center;verticalAlign=top;childLayout=stackLayout;horizontal=1;startSize=28.4;horizontalStack=0;resizeParent=1;resizeParentMax=0;resizeLast=0;collapsible=0;marginBottom=0;" vertex="1" parent="1">
          <mxGeometry x="4112" y="404" width="137" height="148.4" as="geometry" />
        </mxCell>
        <mxCell id="k8Ekjxk7Mpu5mIQkRaKN-54" value="+name$ String" style="text;strokeColor=none;fillColor=none;align=left;verticalAlign=top;spacingLeft=4;spacingRight=4;overflow=hidden;rotatable=0;points=[[0,0.5],[1,0.5]];portConstraint=eastwest;" vertex="1" parent="k8Ekjxk7Mpu5mIQkRaKN-53">
          <mxGeometry y="28.4" width="137" height="28" as="geometry" />
        </mxCell>
        <mxCell id="k8Ekjxk7Mpu5mIQkRaKN-55" value="+name$ String" style="text;strokeColor=none;fillColor=none;align=left;verticalAlign=top;spacingLeft=4;spacingRight=4;overflow=hidden;rotatable=0;points=[[0,0.5],[1,0.5]];portConstraint=eastwest;" vertex="1" parent="k8Ekjxk7Mpu5mIQkRaKN-53">
          <mxGeometry y="56.4" width="137" height="28" as="geometry" />
        </mxCell>
        <mxCell id="k8Ekjxk7Mpu5mIQkRaKN-56" style="line;strokeWidth=1;fillColor=none;align=left;verticalAlign=middle;spacingTop=-1;spacingLeft=3;spacingRight=3;rotatable=0;labelPosition=right;points=[];portConstraint=eastwest;strokeColor=inherit;" vertex="1" parent="k8Ekjxk7Mpu5mIQkRaKN-53">
          <mxGeometry y="84.4" width="137" height="8" as="geometry" />
        </mxCell>
        <mxCell id="k8Ekjxk7Mpu5mIQkRaKN-57" value="+build() Widget" style="text;strokeColor=none;fillColor=none;align=left;verticalAlign=top;spacingLeft=4;spacingRight=4;overflow=hidden;rotatable=0;points=[[0,0.5],[1,0.5]];portConstraint=eastwest;" vertex="1" parent="k8Ekjxk7Mpu5mIQkRaKN-53">
          <mxGeometry y="92.4" width="137" height="28" as="geometry" />
        </mxCell>
        <mxCell id="k8Ekjxk7Mpu5mIQkRaKN-58" value="+build() Widget" style="text;strokeColor=none;fillColor=none;align=left;verticalAlign=top;spacingLeft=4;spacingRight=4;overflow=hidden;rotatable=0;points=[[0,0.5],[1,0.5]];portConstraint=eastwest;" vertex="1" parent="k8Ekjxk7Mpu5mIQkRaKN-53">
          <mxGeometry y="120.4" width="137" height="28" as="geometry" />
        </mxCell>
        <mxCell id="k8Ekjxk7Mpu5mIQkRaKN-59" value="StatelessWidget" style="swimlane;fontStyle=1;align=center;verticalAlign=top;childLayout=stackLayout;horizontal=1;startSize=25;horizontalStack=0;resizeParent=1;resizeParentMax=0;resizeLast=0;collapsible=0;marginBottom=0;" vertex="1" parent="1">
          <mxGeometry x="3066" y="147" width="134" height="38" as="geometry" />
        </mxCell>
        <mxCell id="k8Ekjxk7Mpu5mIQkRaKN-60" style="line;strokeWidth=1;fillColor=none;align=left;verticalAlign=middle;spacingTop=-1;spacingLeft=3;spacingRight=3;rotatable=0;labelPosition=right;points=[];portConstraint=eastwest;strokeColor=inherit;" vertex="1" parent="k8Ekjxk7Mpu5mIQkRaKN-59">
          <mxGeometry y="25" width="134" height="13" as="geometry" />
        </mxCell>
        <mxCell id="k8Ekjxk7Mpu5mIQkRaKN-61" value="homeStoredW" style="swimlane;fontStyle=1;align=center;verticalAlign=top;childLayout=stackLayout;horizontal=1;startSize=29.2;horizontalStack=0;resizeParent=1;resizeParentMax=0;resizeLast=0;collapsible=0;marginBottom=0;" vertex="1" parent="1">
          <mxGeometry x="4299" y="439" width="137" height="66.2" as="geometry" />
        </mxCell>
        <mxCell id="k8Ekjxk7Mpu5mIQkRaKN-62" style="line;strokeWidth=1;fillColor=none;align=left;verticalAlign=middle;spacingTop=-1;spacingLeft=3;spacingRight=3;rotatable=0;labelPosition=right;points=[];portConstraint=eastwest;strokeColor=inherit;" vertex="1" parent="k8Ekjxk7Mpu5mIQkRaKN-61">
          <mxGeometry y="29.2" width="137" height="8" as="geometry" />
        </mxCell>
        <mxCell id="k8Ekjxk7Mpu5mIQkRaKN-63" value="+build() Widget" style="text;strokeColor=none;fillColor=none;align=left;verticalAlign=top;spacingLeft=4;spacingRight=4;overflow=hidden;rotatable=0;points=[[0,0.5],[1,0.5]];portConstraint=eastwest;" vertex="1" parent="k8Ekjxk7Mpu5mIQkRaKN-61">
          <mxGeometry y="37.2" width="137" height="29" as="geometry" />
        </mxCell>
        <mxCell id="k8Ekjxk7Mpu5mIQkRaKN-64" value="AdminUsersScreen" style="swimlane;fontStyle=1;align=center;verticalAlign=top;childLayout=stackLayout;horizontal=1;startSize=32;horizontalStack=0;resizeParent=1;resizeParentMax=0;resizeLast=0;collapsible=0;marginBottom=0;" vertex="1" parent="1">
          <mxGeometry x="3907" y="427" width="155" height="104" as="geometry" />
        </mxCell>
        <mxCell id="k8Ekjxk7Mpu5mIQkRaKN-65" value="+name$ String" style="text;strokeColor=none;fillColor=none;align=left;verticalAlign=top;spacingLeft=4;spacingRight=4;overflow=hidden;rotatable=0;points=[[0,0.5],[1,0.5]];portConstraint=eastwest;" vertex="1" parent="k8Ekjxk7Mpu5mIQkRaKN-64">
          <mxGeometry y="32" width="155" height="32" as="geometry" />
        </mxCell>
        <mxCell id="k8Ekjxk7Mpu5mIQkRaKN-66" style="line;strokeWidth=1;fillColor=none;align=left;verticalAlign=middle;spacingTop=-1;spacingLeft=3;spacingRight=3;rotatable=0;labelPosition=right;points=[];portConstraint=eastwest;strokeColor=inherit;" vertex="1" parent="k8Ekjxk7Mpu5mIQkRaKN-64">
          <mxGeometry y="64" width="155" height="8" as="geometry" />
        </mxCell>
        <mxCell id="k8Ekjxk7Mpu5mIQkRaKN-67" value="+build() Widget" style="text;strokeColor=none;fillColor=none;align=left;verticalAlign=top;spacingLeft=4;spacingRight=4;overflow=hidden;rotatable=0;points=[[0,0.5],[1,0.5]];portConstraint=eastwest;" vertex="1" parent="k8Ekjxk7Mpu5mIQkRaKN-64">
          <mxGeometry y="72" width="155" height="32" as="geometry" />
        </mxCell>
        <mxCell id="k8Ekjxk7Mpu5mIQkRaKN-68" value="_HomeIputs" style="swimlane;fontStyle=1;align=center;verticalAlign=top;childLayout=stackLayout;horizontal=1;startSize=27.428571428571427;horizontalStack=0;resizeParent=1;resizeParentMax=0;resizeLast=0;collapsible=0;marginBottom=0;" vertex="1" parent="1">
          <mxGeometry x="5794" y="427" width="316" height="89.42857142857143" as="geometry" />
        </mxCell>
        <mxCell id="k8Ekjxk7Mpu5mIQkRaKN-69" style="line;strokeWidth=1;fillColor=none;align=left;verticalAlign=middle;spacingTop=-1;spacingLeft=3;spacingRight=3;rotatable=0;labelPosition=right;points=[];portConstraint=eastwest;strokeColor=inherit;" vertex="1" parent="k8Ekjxk7Mpu5mIQkRaKN-68">
          <mxGeometry y="27.428571428571427" width="316" height="8" as="geometry" />
        </mxCell>
        <mxCell id="k8Ekjxk7Mpu5mIQkRaKN-70" value="+createState() State&amp;lt;_HomeIputs&amp;gt;" style="text;strokeColor=none;fillColor=none;align=left;verticalAlign=top;spacingLeft=4;spacingRight=4;overflow=hidden;rotatable=0;points=[[0,0.5],[1,0.5]];portConstraint=eastwest;" vertex="1" parent="k8Ekjxk7Mpu5mIQkRaKN-68">
          <mxGeometry y="35.42857142857143" width="316" height="27" as="geometry" />
        </mxCell>
        <mxCell id="k8Ekjxk7Mpu5mIQkRaKN-71" value="+createState() State&amp;lt;_HomeIputs&amp;gt;" style="text;strokeColor=none;fillColor=none;align=left;verticalAlign=top;spacingLeft=4;spacingRight=4;overflow=hidden;rotatable=0;points=[[0,0.5],[1,0.5]];portConstraint=eastwest;" vertex="1" parent="k8Ekjxk7Mpu5mIQkRaKN-68">
          <mxGeometry y="62.42857142857143" width="316" height="27" as="geometry" />
        </mxCell>
        <mxCell id="k8Ekjxk7Mpu5mIQkRaKN-72" value="StatefulWidget" style="swimlane;fontStyle=1;align=center;verticalAlign=top;childLayout=stackLayout;horizontal=1;startSize=25;horizontalStack=0;resizeParent=1;resizeParentMax=0;resizeLast=0;collapsible=0;marginBottom=0;" vertex="1" parent="1">
          <mxGeometry x="5300" y="147" width="126" height="38" as="geometry" />
        </mxCell>
        <mxCell id="k8Ekjxk7Mpu5mIQkRaKN-73" style="line;strokeWidth=1;fillColor=none;align=left;verticalAlign=middle;spacingTop=-1;spacingLeft=3;spacingRight=3;rotatable=0;labelPosition=right;points=[];portConstraint=eastwest;strokeColor=inherit;" vertex="1" parent="k8Ekjxk7Mpu5mIQkRaKN-72">
          <mxGeometry y="25" width="126" height="13" as="geometry" />
        </mxCell>
        <mxCell id="k8Ekjxk7Mpu5mIQkRaKN-74" value="_HomeIputsState" style="swimlane;fontStyle=1;align=center;verticalAlign=top;childLayout=stackLayout;horizontal=1;startSize=26.857142857142858;horizontalStack=0;resizeParent=1;resizeParentMax=0;resizeLast=0;collapsible=0;marginBottom=0;" vertex="1" parent="1">
          <mxGeometry x="7444" y="381" width="249" height="196.85714285714286" as="geometry" />
        </mxCell>
        <mxCell id="k8Ekjxk7Mpu5mIQkRaKN-75" value="+isLoading bool" style="text;strokeColor=none;fillColor=none;align=left;verticalAlign=top;spacingLeft=4;spacingRight=4;overflow=hidden;rotatable=0;points=[[0,0.5],[1,0.5]];portConstraint=eastwest;" vertex="1" parent="k8Ekjxk7Mpu5mIQkRaKN-74">
          <mxGeometry y="26.857142857142858" width="249" height="27" as="geometry" />
        </mxCell>
        <mxCell id="k8Ekjxk7Mpu5mIQkRaKN-76" value="+isLoading bool" style="text;strokeColor=none;fillColor=none;align=left;verticalAlign=top;spacingLeft=4;spacingRight=4;overflow=hidden;rotatable=0;points=[[0,0.5],[1,0.5]];portConstraint=eastwest;" vertex="1" parent="k8Ekjxk7Mpu5mIQkRaKN-74">
          <mxGeometry y="53.85714285714286" width="249" height="27" as="geometry" />
        </mxCell>
        <mxCell id="k8Ekjxk7Mpu5mIQkRaKN-77" style="line;strokeWidth=1;fillColor=none;align=left;verticalAlign=middle;spacingTop=-1;spacingLeft=3;spacingRight=3;rotatable=0;labelPosition=right;points=[];portConstraint=eastwest;strokeColor=inherit;" vertex="1" parent="k8Ekjxk7Mpu5mIQkRaKN-74">
          <mxGeometry y="80.85714285714286" width="249" height="8" as="geometry" />
        </mxCell>
        <mxCell id="k8Ekjxk7Mpu5mIQkRaKN-78" value="+build() Widget" style="text;strokeColor=none;fillColor=none;align=left;verticalAlign=top;spacingLeft=4;spacingRight=4;overflow=hidden;rotatable=0;points=[[0,0.5],[1,0.5]];portConstraint=eastwest;" vertex="1" parent="k8Ekjxk7Mpu5mIQkRaKN-74">
          <mxGeometry y="88.85714285714286" width="249" height="27" as="geometry" />
        </mxCell>
        <mxCell id="k8Ekjxk7Mpu5mIQkRaKN-79" value="+deflattedpushroute() dynamic" style="text;strokeColor=none;fillColor=none;align=left;verticalAlign=top;spacingLeft=4;spacingRight=4;overflow=hidden;rotatable=0;points=[[0,0.5],[1,0.5]];portConstraint=eastwest;" vertex="1" parent="k8Ekjxk7Mpu5mIQkRaKN-74">
          <mxGeometry y="115.85714285714286" width="249" height="27" as="geometry" />
        </mxCell>
        <mxCell id="k8Ekjxk7Mpu5mIQkRaKN-80" value="+build() Widget" style="text;strokeColor=none;fillColor=none;align=left;verticalAlign=top;spacingLeft=4;spacingRight=4;overflow=hidden;rotatable=0;points=[[0,0.5],[1,0.5]];portConstraint=eastwest;" vertex="1" parent="k8Ekjxk7Mpu5mIQkRaKN-74">
          <mxGeometry y="142.85714285714286" width="249" height="27" as="geometry" />
        </mxCell>
        <mxCell id="k8Ekjxk7Mpu5mIQkRaKN-81" value="+deflattedpushroute() dynamic" style="text;strokeColor=none;fillColor=none;align=left;verticalAlign=top;spacingLeft=4;spacingRight=4;overflow=hidden;rotatable=0;points=[[0,0.5],[1,0.5]];portConstraint=eastwest;" vertex="1" parent="k8Ekjxk7Mpu5mIQkRaKN-74">
          <mxGeometry y="169.85714285714286" width="249" height="27" as="geometry" />
        </mxCell>
        <mxCell id="k8Ekjxk7Mpu5mIQkRaKN-82" value="State" style="swimlane;fontStyle=1;align=center;verticalAlign=top;childLayout=stackLayout;horizontal=1;startSize=25;horizontalStack=0;resizeParent=1;resizeParentMax=0;resizeLast=0;collapsible=0;marginBottom=0;" vertex="1" parent="1">
          <mxGeometry x="6943" y="147" width="54" height="38" as="geometry" />
        </mxCell>
        <mxCell id="k8Ekjxk7Mpu5mIQkRaKN-83" style="line;strokeWidth=1;fillColor=none;align=left;verticalAlign=middle;spacingTop=-1;spacingLeft=3;spacingRight=3;rotatable=0;labelPosition=right;points=[];portConstraint=eastwest;strokeColor=inherit;" vertex="1" parent="k8Ekjxk7Mpu5mIQkRaKN-82">
          <mxGeometry y="25" width="54" height="13" as="geometry" />
        </mxCell>
        <mxCell id="k8Ekjxk7Mpu5mIQkRaKN-84" value="SignInScreen" style="swimlane;fontStyle=1;align=center;verticalAlign=top;childLayout=stackLayout;horizontal=1;startSize=32;horizontalStack=0;resizeParent=1;resizeParentMax=0;resizeLast=0;collapsible=0;marginBottom=0;" vertex="1" parent="1">
          <mxGeometry x="5572" y="427" width="172" height="104" as="geometry" />
        </mxCell>
        <mxCell id="k8Ekjxk7Mpu5mIQkRaKN-85" value="+name$ String" style="text;strokeColor=none;fillColor=none;align=left;verticalAlign=top;spacingLeft=4;spacingRight=4;overflow=hidden;rotatable=0;points=[[0,0.5],[1,0.5]];portConstraint=eastwest;" vertex="1" parent="k8Ekjxk7Mpu5mIQkRaKN-84">
          <mxGeometry y="32" width="172" height="32" as="geometry" />
        </mxCell>
        <mxCell id="k8Ekjxk7Mpu5mIQkRaKN-86" style="line;strokeWidth=1;fillColor=none;align=left;verticalAlign=middle;spacingTop=-1;spacingLeft=3;spacingRight=3;rotatable=0;labelPosition=right;points=[];portConstraint=eastwest;strokeColor=inherit;" vertex="1" parent="k8Ekjxk7Mpu5mIQkRaKN-84">
          <mxGeometry y="64" width="172" height="8" as="geometry" />
        </mxCell>
        <mxCell id="k8Ekjxk7Mpu5mIQkRaKN-87" value="+createState() State" style="text;strokeColor=none;fillColor=none;align=left;verticalAlign=top;spacingLeft=4;spacingRight=4;overflow=hidden;rotatable=0;points=[[0,0.5],[1,0.5]];portConstraint=eastwest;" vertex="1" parent="k8Ekjxk7Mpu5mIQkRaKN-84">
          <mxGeometry y="72" width="172" height="32" as="geometry" />
        </mxCell>
        <mxCell id="k8Ekjxk7Mpu5mIQkRaKN-88" value="_SignInScreenState" style="swimlane;fontStyle=1;align=center;verticalAlign=top;childLayout=stackLayout;horizontal=1;startSize=28.4;horizontalStack=0;resizeParent=1;resizeParentMax=0;resizeLast=0;collapsible=0;marginBottom=0;" vertex="1" parent="1">
          <mxGeometry x="7134" y="404" width="260" height="148.4" as="geometry" />
        </mxCell>
        <mxCell id="k8Ekjxk7Mpu5mIQkRaKN-89" value="+isLoading bool" style="text;strokeColor=none;fillColor=none;align=left;verticalAlign=top;spacingLeft=4;spacingRight=4;overflow=hidden;rotatable=0;points=[[0,0.5],[1,0.5]];portConstraint=eastwest;" vertex="1" parent="k8Ekjxk7Mpu5mIQkRaKN-88">
          <mxGeometry y="28.4" width="260" height="28" as="geometry" />
        </mxCell>
        <mxCell id="k8Ekjxk7Mpu5mIQkRaKN-90" style="line;strokeWidth=1;fillColor=none;align=left;verticalAlign=middle;spacingTop=-1;spacingLeft=3;spacingRight=3;rotatable=0;labelPosition=right;points=[];portConstraint=eastwest;strokeColor=inherit;" vertex="1" parent="k8Ekjxk7Mpu5mIQkRaKN-88">
          <mxGeometry y="56.4" width="260" height="8" as="geometry" />
        </mxCell>
        <mxCell id="k8Ekjxk7Mpu5mIQkRaKN-91" value="+build() Widget" style="text;strokeColor=none;fillColor=none;align=left;verticalAlign=top;spacingLeft=4;spacingRight=4;overflow=hidden;rotatable=0;points=[[0,0.5],[1,0.5]];portConstraint=eastwest;" vertex="1" parent="k8Ekjxk7Mpu5mIQkRaKN-88">
          <mxGeometry y="64.4" width="260" height="28" as="geometry" />
        </mxCell>
        <mxCell id="k8Ekjxk7Mpu5mIQkRaKN-92" value="+deflattedpushroute() dynamic" style="text;strokeColor=none;fillColor=none;align=left;verticalAlign=top;spacingLeft=4;spacingRight=4;overflow=hidden;rotatable=0;points=[[0,0.5],[1,0.5]];portConstraint=eastwest;" vertex="1" parent="k8Ekjxk7Mpu5mIQkRaKN-88">
          <mxGeometry y="92.4" width="260" height="28" as="geometry" />
        </mxCell>
        <mxCell id="k8Ekjxk7Mpu5mIQkRaKN-93" value="-_textFormField() TextFormField" style="text;strokeColor=none;fillColor=none;align=left;verticalAlign=top;spacingLeft=4;spacingRight=4;overflow=hidden;rotatable=0;points=[[0,0.5],[1,0.5]];portConstraint=eastwest;" vertex="1" parent="k8Ekjxk7Mpu5mIQkRaKN-88">
          <mxGeometry y="120.4" width="260" height="28" as="geometry" />
        </mxCell>
        <mxCell id="k8Ekjxk7Mpu5mIQkRaKN-94" value="OutputScreen" style="swimlane;fontStyle=1;align=center;verticalAlign=top;childLayout=stackLayout;horizontal=1;startSize=32;horizontalStack=0;resizeParent=1;resizeParentMax=0;resizeLast=0;collapsible=0;marginBottom=0;" vertex="1" parent="1">
          <mxGeometry x="3720" y="427" width="137" height="104" as="geometry" />
        </mxCell>
        <mxCell id="k8Ekjxk7Mpu5mIQkRaKN-95" value="+name$ String" style="text;strokeColor=none;fillColor=none;align=left;verticalAlign=top;spacingLeft=4;spacingRight=4;overflow=hidden;rotatable=0;points=[[0,0.5],[1,0.5]];portConstraint=eastwest;" vertex="1" parent="k8Ekjxk7Mpu5mIQkRaKN-94">
          <mxGeometry y="32" width="137" height="32" as="geometry" />
        </mxCell>
        <mxCell id="k8Ekjxk7Mpu5mIQkRaKN-96" style="line;strokeWidth=1;fillColor=none;align=left;verticalAlign=middle;spacingTop=-1;spacingLeft=3;spacingRight=3;rotatable=0;labelPosition=right;points=[];portConstraint=eastwest;strokeColor=inherit;" vertex="1" parent="k8Ekjxk7Mpu5mIQkRaKN-94">
          <mxGeometry y="64" width="137" height="8" as="geometry" />
        </mxCell>
        <mxCell id="k8Ekjxk7Mpu5mIQkRaKN-97" value="+build() Widget" style="text;strokeColor=none;fillColor=none;align=left;verticalAlign=top;spacingLeft=4;spacingRight=4;overflow=hidden;rotatable=0;points=[[0,0.5],[1,0.5]];portConstraint=eastwest;" vertex="1" parent="k8Ekjxk7Mpu5mIQkRaKN-94">
          <mxGeometry y="72" width="137" height="32" as="geometry" />
        </mxCell>
        <mxCell id="k8Ekjxk7Mpu5mIQkRaKN-98" value="_HomeOutputs" style="swimlane;fontStyle=1;align=center;verticalAlign=top;childLayout=stackLayout;horizontal=1;startSize=29.2;horizontalStack=0;resizeParent=1;resizeParentMax=0;resizeLast=0;collapsible=0;marginBottom=0;" vertex="1" parent="1">
          <mxGeometry x="5184" y="439" width="338" height="66.2" as="geometry" />
        </mxCell>
        <mxCell id="k8Ekjxk7Mpu5mIQkRaKN-99" style="line;strokeWidth=1;fillColor=none;align=left;verticalAlign=middle;spacingTop=-1;spacingLeft=3;spacingRight=3;rotatable=0;labelPosition=right;points=[];portConstraint=eastwest;strokeColor=inherit;" vertex="1" parent="k8Ekjxk7Mpu5mIQkRaKN-98">
          <mxGeometry y="29.2" width="338" height="8" as="geometry" />
        </mxCell>
        <mxCell id="k8Ekjxk7Mpu5mIQkRaKN-100" value="+createState() State&amp;lt;_HomeOutputs&amp;gt;" style="text;strokeColor=none;fillColor=none;align=left;verticalAlign=top;spacingLeft=4;spacingRight=4;overflow=hidden;rotatable=0;points=[[0,0.5],[1,0.5]];portConstraint=eastwest;" vertex="1" parent="k8Ekjxk7Mpu5mIQkRaKN-98">
          <mxGeometry y="37.2" width="338" height="29" as="geometry" />
        </mxCell>
        <mxCell id="k8Ekjxk7Mpu5mIQkRaKN-101" value="_HomeOutputsState" style="swimlane;fontStyle=1;align=center;verticalAlign=top;childLayout=stackLayout;horizontal=1;startSize=29.75;horizontalStack=0;resizeParent=1;resizeParentMax=0;resizeLast=0;collapsible=0;marginBottom=0;" vertex="1" parent="1">
          <mxGeometry x="6835" y="416" width="249" height="127.75" as="geometry" />
        </mxCell>
        <mxCell id="k8Ekjxk7Mpu5mIQkRaKN-102" value="+isLoading bool" style="text;strokeColor=none;fillColor=none;align=left;verticalAlign=top;spacingLeft=4;spacingRight=4;overflow=hidden;rotatable=0;points=[[0,0.5],[1,0.5]];portConstraint=eastwest;" vertex="1" parent="k8Ekjxk7Mpu5mIQkRaKN-101">
          <mxGeometry y="29.75" width="249" height="30" as="geometry" />
        </mxCell>
        <mxCell id="k8Ekjxk7Mpu5mIQkRaKN-103" style="line;strokeWidth=1;fillColor=none;align=left;verticalAlign=middle;spacingTop=-1;spacingLeft=3;spacingRight=3;rotatable=0;labelPosition=right;points=[];portConstraint=eastwest;strokeColor=inherit;" vertex="1" parent="k8Ekjxk7Mpu5mIQkRaKN-101">
          <mxGeometry y="59.75" width="249" height="8" as="geometry" />
        </mxCell>
        <mxCell id="k8Ekjxk7Mpu5mIQkRaKN-104" value="+build() Widget" style="text;strokeColor=none;fillColor=none;align=left;verticalAlign=top;spacingLeft=4;spacingRight=4;overflow=hidden;rotatable=0;points=[[0,0.5],[1,0.5]];portConstraint=eastwest;" vertex="1" parent="k8Ekjxk7Mpu5mIQkRaKN-101">
          <mxGeometry y="67.75" width="249" height="30" as="geometry" />
        </mxCell>
        <mxCell id="k8Ekjxk7Mpu5mIQkRaKN-105" value="+deflattedpushroute() dynamic" style="text;strokeColor=none;fillColor=none;align=left;verticalAlign=top;spacingLeft=4;spacingRight=4;overflow=hidden;rotatable=0;points=[[0,0.5],[1,0.5]];portConstraint=eastwest;" vertex="1" parent="k8Ekjxk7Mpu5mIQkRaKN-101">
          <mxGeometry y="97.75" width="249" height="30" as="geometry" />
        </mxCell>
        <mxCell id="k8Ekjxk7Mpu5mIQkRaKN-106" value="StoredScreen" style="swimlane;fontStyle=1;align=center;verticalAlign=top;childLayout=stackLayout;horizontal=1;startSize=32;horizontalStack=0;resizeParent=1;resizeParentMax=0;resizeLast=0;collapsible=0;marginBottom=0;" vertex="1" parent="1">
          <mxGeometry x="3532" y="427" width="137" height="104" as="geometry" />
        </mxCell>
        <mxCell id="k8Ekjxk7Mpu5mIQkRaKN-107" value="+name$ String" style="text;strokeColor=none;fillColor=none;align=left;verticalAlign=top;spacingLeft=4;spacingRight=4;overflow=hidden;rotatable=0;points=[[0,0.5],[1,0.5]];portConstraint=eastwest;" vertex="1" parent="k8Ekjxk7Mpu5mIQkRaKN-106">
          <mxGeometry y="32" width="137" height="32" as="geometry" />
        </mxCell>
        <mxCell id="k8Ekjxk7Mpu5mIQkRaKN-108" style="line;strokeWidth=1;fillColor=none;align=left;verticalAlign=middle;spacingTop=-1;spacingLeft=3;spacingRight=3;rotatable=0;labelPosition=right;points=[];portConstraint=eastwest;strokeColor=inherit;" vertex="1" parent="k8Ekjxk7Mpu5mIQkRaKN-106">
          <mxGeometry y="64" width="137" height="8" as="geometry" />
        </mxCell>
        <mxCell id="k8Ekjxk7Mpu5mIQkRaKN-109" value="+build() Widget" style="text;strokeColor=none;fillColor=none;align=left;verticalAlign=top;spacingLeft=4;spacingRight=4;overflow=hidden;rotatable=0;points=[[0,0.5],[1,0.5]];portConstraint=eastwest;" vertex="1" parent="k8Ekjxk7Mpu5mIQkRaKN-106">
          <mxGeometry y="72" width="137" height="32" as="geometry" />
        </mxCell>
        <mxCell id="k8Ekjxk7Mpu5mIQkRaKN-110" value="_HomeStored" style="swimlane;fontStyle=1;align=center;verticalAlign=top;childLayout=stackLayout;horizontal=1;startSize=29.2;horizontalStack=0;resizeParent=1;resizeParentMax=0;resizeLast=0;collapsible=0;marginBottom=0;" vertex="1" parent="1">
          <mxGeometry x="3345" y="439" width="137" height="66.2" as="geometry" />
        </mxCell>
        <mxCell id="k8Ekjxk7Mpu5mIQkRaKN-111" style="line;strokeWidth=1;fillColor=none;align=left;verticalAlign=middle;spacingTop=-1;spacingLeft=3;spacingRight=3;rotatable=0;labelPosition=right;points=[];portConstraint=eastwest;strokeColor=inherit;" vertex="1" parent="k8Ekjxk7Mpu5mIQkRaKN-110">
          <mxGeometry y="29.2" width="137" height="8" as="geometry" />
        </mxCell>
        <mxCell id="k8Ekjxk7Mpu5mIQkRaKN-112" value="+build() Widget" style="text;strokeColor=none;fillColor=none;align=left;verticalAlign=top;spacingLeft=4;spacingRight=4;overflow=hidden;rotatable=0;points=[[0,0.5],[1,0.5]];portConstraint=eastwest;" vertex="1" parent="k8Ekjxk7Mpu5mIQkRaKN-110">
          <mxGeometry y="37.2" width="137" height="29" as="geometry" />
        </mxCell>
        <mxCell id="k8Ekjxk7Mpu5mIQkRaKN-113" value="HomeScreen" style="swimlane;fontStyle=1;align=center;verticalAlign=top;childLayout=stackLayout;horizontal=1;startSize=32;horizontalStack=0;resizeParent=1;resizeParentMax=0;resizeLast=0;collapsible=0;marginBottom=0;" vertex="1" parent="1">
          <mxGeometry x="3158" y="427" width="137" height="104" as="geometry" />
        </mxCell>
        <mxCell id="k8Ekjxk7Mpu5mIQkRaKN-114" value="+name$ String" style="text;strokeColor=none;fillColor=none;align=left;verticalAlign=top;spacingLeft=4;spacingRight=4;overflow=hidden;rotatable=0;points=[[0,0.5],[1,0.5]];portConstraint=eastwest;" vertex="1" parent="k8Ekjxk7Mpu5mIQkRaKN-113">
          <mxGeometry y="32" width="137" height="32" as="geometry" />
        </mxCell>
        <mxCell id="k8Ekjxk7Mpu5mIQkRaKN-115" style="line;strokeWidth=1;fillColor=none;align=left;verticalAlign=middle;spacingTop=-1;spacingLeft=3;spacingRight=3;rotatable=0;labelPosition=right;points=[];portConstraint=eastwest;strokeColor=inherit;" vertex="1" parent="k8Ekjxk7Mpu5mIQkRaKN-113">
          <mxGeometry y="64" width="137" height="8" as="geometry" />
        </mxCell>
        <mxCell id="k8Ekjxk7Mpu5mIQkRaKN-116" value="+build() Widget" style="text;strokeColor=none;fillColor=none;align=left;verticalAlign=top;spacingLeft=4;spacingRight=4;overflow=hidden;rotatable=0;points=[[0,0.5],[1,0.5]];portConstraint=eastwest;" vertex="1" parent="k8Ekjxk7Mpu5mIQkRaKN-113">
          <mxGeometry y="72" width="137" height="32" as="geometry" />
        </mxCell>
        <mxCell id="k8Ekjxk7Mpu5mIQkRaKN-117" value="HomeView" style="swimlane;fontStyle=1;align=center;verticalAlign=top;childLayout=stackLayout;horizontal=1;startSize=29.2;horizontalStack=0;resizeParent=1;resizeParentMax=0;resizeLast=0;collapsible=0;marginBottom=0;" vertex="1" parent="1">
          <mxGeometry x="2971" y="439" width="137" height="66.2" as="geometry" />
        </mxCell>
        <mxCell id="k8Ekjxk7Mpu5mIQkRaKN-118" style="line;strokeWidth=1;fillColor=none;align=left;verticalAlign=middle;spacingTop=-1;spacingLeft=3;spacingRight=3;rotatable=0;labelPosition=right;points=[];portConstraint=eastwest;strokeColor=inherit;" vertex="1" parent="k8Ekjxk7Mpu5mIQkRaKN-117">
          <mxGeometry y="29.2" width="137" height="8" as="geometry" />
        </mxCell>
        <mxCell id="k8Ekjxk7Mpu5mIQkRaKN-119" value="+build() Widget" style="text;strokeColor=none;fillColor=none;align=left;verticalAlign=top;spacingLeft=4;spacingRight=4;overflow=hidden;rotatable=0;points=[[0,0.5],[1,0.5]];portConstraint=eastwest;" vertex="1" parent="k8Ekjxk7Mpu5mIQkRaKN-117">
          <mxGeometry y="37.2" width="137" height="29" as="geometry" />
        </mxCell>
        <mxCell id="k8Ekjxk7Mpu5mIQkRaKN-120" value="ProgressScreen" style="swimlane;fontStyle=1;align=center;verticalAlign=top;childLayout=stackLayout;horizontal=1;startSize=29.2;horizontalStack=0;resizeParent=1;resizeParentMax=0;resizeLast=0;collapsible=0;marginBottom=0;" vertex="1" parent="1">
          <mxGeometry x="2784" y="439" width="137" height="66.2" as="geometry" />
        </mxCell>
        <mxCell id="k8Ekjxk7Mpu5mIQkRaKN-121" style="line;strokeWidth=1;fillColor=none;align=left;verticalAlign=middle;spacingTop=-1;spacingLeft=3;spacingRight=3;rotatable=0;labelPosition=right;points=[];portConstraint=eastwest;strokeColor=inherit;" vertex="1" parent="k8Ekjxk7Mpu5mIQkRaKN-120">
          <mxGeometry y="29.2" width="137" height="8" as="geometry" />
        </mxCell>
        <mxCell id="k8Ekjxk7Mpu5mIQkRaKN-122" value="+build() Widget" style="text;strokeColor=none;fillColor=none;align=left;verticalAlign=top;spacingLeft=4;spacingRight=4;overflow=hidden;rotatable=0;points=[[0,0.5],[1,0.5]];portConstraint=eastwest;" vertex="1" parent="k8Ekjxk7Mpu5mIQkRaKN-120">
          <mxGeometry y="37.2" width="137" height="29" as="geometry" />
        </mxCell>
        <mxCell id="k8Ekjxk7Mpu5mIQkRaKN-123" value="DataTableContainer_AdminUsers_Widget" style="swimlane;fontStyle=1;align=center;verticalAlign=top;childLayout=stackLayout;horizontal=1;startSize=29.2;horizontalStack=0;resizeParent=1;resizeParentMax=0;resizeLast=0;collapsible=0;marginBottom=0;" vertex="1" parent="1">
          <mxGeometry x="2413" y="439" width="321" height="66.2" as="geometry" />
        </mxCell>
        <mxCell id="k8Ekjxk7Mpu5mIQkRaKN-124" style="line;strokeWidth=1;fillColor=none;align=left;verticalAlign=middle;spacingTop=-1;spacingLeft=3;spacingRight=3;rotatable=0;labelPosition=right;points=[];portConstraint=eastwest;strokeColor=inherit;" vertex="1" parent="k8Ekjxk7Mpu5mIQkRaKN-123">
          <mxGeometry y="29.2" width="321" height="8" as="geometry" />
        </mxCell>
        <mxCell id="k8Ekjxk7Mpu5mIQkRaKN-125" value="+build() Widget" style="text;strokeColor=none;fillColor=none;align=left;verticalAlign=top;spacingLeft=4;spacingRight=4;overflow=hidden;rotatable=0;points=[[0,0.5],[1,0.5]];portConstraint=eastwest;" vertex="1" parent="k8Ekjxk7Mpu5mIQkRaKN-123">
          <mxGeometry y="37.2" width="321" height="29" as="geometry" />
        </mxCell>
        <mxCell id="k8Ekjxk7Mpu5mIQkRaKN-126" value="FixedColumn_AdminUsers_Widget" style="swimlane;fontStyle=1;align=center;verticalAlign=top;childLayout=stackLayout;horizontal=1;startSize=29.2;horizontalStack=0;resizeParent=1;resizeParentMax=0;resizeLast=0;collapsible=0;marginBottom=0;" vertex="1" parent="1">
          <mxGeometry x="2091" y="439" width="272" height="66.2" as="geometry" />
        </mxCell>
        <mxCell id="k8Ekjxk7Mpu5mIQkRaKN-127" style="line;strokeWidth=1;fillColor=none;align=left;verticalAlign=middle;spacingTop=-1;spacingLeft=3;spacingRight=3;rotatable=0;labelPosition=right;points=[];portConstraint=eastwest;strokeColor=inherit;" vertex="1" parent="k8Ekjxk7Mpu5mIQkRaKN-126">
          <mxGeometry y="29.2" width="272" height="8" as="geometry" />
        </mxCell>
        <mxCell id="k8Ekjxk7Mpu5mIQkRaKN-128" value="+build() Widget" style="text;strokeColor=none;fillColor=none;align=left;verticalAlign=top;spacingLeft=4;spacingRight=4;overflow=hidden;rotatable=0;points=[[0,0.5],[1,0.5]];portConstraint=eastwest;" vertex="1" parent="k8Ekjxk7Mpu5mIQkRaKN-126">
          <mxGeometry y="37.2" width="272" height="29" as="geometry" />
        </mxCell>
        <mxCell id="k8Ekjxk7Mpu5mIQkRaKN-129" value="ScrollableColumn_AdminUsers_Widget" style="swimlane;fontStyle=1;align=center;verticalAlign=top;childLayout=stackLayout;horizontal=1;startSize=29.2;horizontalStack=0;resizeParent=1;resizeParentMax=0;resizeLast=0;collapsible=0;marginBottom=0;" vertex="1" parent="1">
          <mxGeometry x="4830" y="439" width="304" height="66.2" as="geometry" />
        </mxCell>
        <mxCell id="k8Ekjxk7Mpu5mIQkRaKN-130" style="line;strokeWidth=1;fillColor=none;align=left;verticalAlign=middle;spacingTop=-1;spacingLeft=3;spacingRight=3;rotatable=0;labelPosition=right;points=[];portConstraint=eastwest;strokeColor=inherit;" vertex="1" parent="k8Ekjxk7Mpu5mIQkRaKN-129">
          <mxGeometry y="29.2" width="304" height="8" as="geometry" />
        </mxCell>
        <mxCell id="k8Ekjxk7Mpu5mIQkRaKN-131" value="+createState() State" style="text;strokeColor=none;fillColor=none;align=left;verticalAlign=top;spacingLeft=4;spacingRight=4;overflow=hidden;rotatable=0;points=[[0,0.5],[1,0.5]];portConstraint=eastwest;" vertex="1" parent="k8Ekjxk7Mpu5mIQkRaKN-129">
          <mxGeometry y="37.2" width="304" height="29" as="geometry" />
        </mxCell>
        <mxCell id="k8Ekjxk7Mpu5mIQkRaKN-132" value="_ScrollableColumn_AdminUsers_WidgetState" style="swimlane;fontStyle=1;align=center;verticalAlign=top;childLayout=stackLayout;horizontal=1;startSize=29.2;horizontalStack=0;resizeParent=1;resizeParentMax=0;resizeLast=0;collapsible=0;marginBottom=0;" vertex="1" parent="1">
          <mxGeometry x="6433" y="439" width="352" height="66.2" as="geometry" />
        </mxCell>
        <mxCell id="k8Ekjxk7Mpu5mIQkRaKN-133" style="line;strokeWidth=1;fillColor=none;align=left;verticalAlign=middle;spacingTop=-1;spacingLeft=3;spacingRight=3;rotatable=0;labelPosition=right;points=[];portConstraint=eastwest;strokeColor=inherit;" vertex="1" parent="k8Ekjxk7Mpu5mIQkRaKN-132">
          <mxGeometry y="29.2" width="352" height="8" as="geometry" />
        </mxCell>
        <mxCell id="k8Ekjxk7Mpu5mIQkRaKN-134" value="+build() Widget" style="text;strokeColor=none;fillColor=none;align=left;verticalAlign=top;spacingLeft=4;spacingRight=4;overflow=hidden;rotatable=0;points=[[0,0.5],[1,0.5]];portConstraint=eastwest;" vertex="1" parent="k8Ekjxk7Mpu5mIQkRaKN-132">
          <mxGeometry y="37.2" width="352" height="29" as="geometry" />
        </mxCell>
        <mxCell id="k8Ekjxk7Mpu5mIQkRaKN-135" value="DataTableContainer" style="swimlane;fontStyle=1;align=center;verticalAlign=top;childLayout=stackLayout;horizontal=1;startSize=29.2;horizontalStack=0;resizeParent=1;resizeParentMax=0;resizeLast=0;collapsible=0;marginBottom=0;" vertex="1" parent="1">
          <mxGeometry x="1878" y="439" width="163" height="66.2" as="geometry" />
        </mxCell>
        <mxCell id="k8Ekjxk7Mpu5mIQkRaKN-136" style="line;strokeWidth=1;fillColor=none;align=left;verticalAlign=middle;spacingTop=-1;spacingLeft=3;spacingRight=3;rotatable=0;labelPosition=right;points=[];portConstraint=eastwest;strokeColor=inherit;" vertex="1" parent="k8Ekjxk7Mpu5mIQkRaKN-135">
          <mxGeometry y="29.2" width="163" height="8" as="geometry" />
        </mxCell>
        <mxCell id="k8Ekjxk7Mpu5mIQkRaKN-137" value="+build() Widget" style="text;strokeColor=none;fillColor=none;align=left;verticalAlign=top;spacingLeft=4;spacingRight=4;overflow=hidden;rotatable=0;points=[[0,0.5],[1,0.5]];portConstraint=eastwest;" vertex="1" parent="k8Ekjxk7Mpu5mIQkRaKN-135">
          <mxGeometry y="37.2" width="163" height="29" as="geometry" />
        </mxCell>
        <mxCell id="k8Ekjxk7Mpu5mIQkRaKN-138" value="FixedColumnWidget" style="swimlane;fontStyle=1;align=center;verticalAlign=top;childLayout=stackLayout;horizontal=1;startSize=29.2;horizontalStack=0;resizeParent=1;resizeParentMax=0;resizeLast=0;collapsible=0;marginBottom=0;" vertex="1" parent="1">
          <mxGeometry x="1663" y="439" width="165" height="66.2" as="geometry" />
        </mxCell>
        <mxCell id="k8Ekjxk7Mpu5mIQkRaKN-139" style="line;strokeWidth=1;fillColor=none;align=left;verticalAlign=middle;spacingTop=-1;spacingLeft=3;spacingRight=3;rotatable=0;labelPosition=right;points=[];portConstraint=eastwest;strokeColor=inherit;" vertex="1" parent="k8Ekjxk7Mpu5mIQkRaKN-138">
          <mxGeometry y="29.2" width="165" height="8" as="geometry" />
        </mxCell>
        <mxCell id="k8Ekjxk7Mpu5mIQkRaKN-140" value="+build() Widget" style="text;strokeColor=none;fillColor=none;align=left;verticalAlign=top;spacingLeft=4;spacingRight=4;overflow=hidden;rotatable=0;points=[[0,0.5],[1,0.5]];portConstraint=eastwest;" vertex="1" parent="k8Ekjxk7Mpu5mIQkRaKN-138">
          <mxGeometry y="37.2" width="165" height="29" as="geometry" />
        </mxCell>
        <mxCell id="k8Ekjxk7Mpu5mIQkRaKN-141" value="ScrollableColumnWidget" style="swimlane;fontStyle=1;align=center;verticalAlign=top;childLayout=stackLayout;horizontal=1;startSize=29.2;horizontalStack=0;resizeParent=1;resizeParentMax=0;resizeLast=0;collapsible=0;marginBottom=0;" vertex="1" parent="1">
          <mxGeometry x="1416" y="439" width="197" height="66.2" as="geometry" />
        </mxCell>
        <mxCell id="k8Ekjxk7Mpu5mIQkRaKN-142" style="line;strokeWidth=1;fillColor=none;align=left;verticalAlign=middle;spacingTop=-1;spacingLeft=3;spacingRight=3;rotatable=0;labelPosition=right;points=[];portConstraint=eastwest;strokeColor=inherit;" vertex="1" parent="k8Ekjxk7Mpu5mIQkRaKN-141">
          <mxGeometry y="29.2" width="197" height="8" as="geometry" />
        </mxCell>
        <mxCell id="k8Ekjxk7Mpu5mIQkRaKN-143" value="+build() Widget" style="text;strokeColor=none;fillColor=none;align=left;verticalAlign=top;spacingLeft=4;spacingRight=4;overflow=hidden;rotatable=0;points=[[0,0.5],[1,0.5]];portConstraint=eastwest;" vertex="1" parent="k8Ekjxk7Mpu5mIQkRaKN-141">
          <mxGeometry y="37.2" width="197" height="29" as="geometry" />
        </mxCell>
        <mxCell id="k8Ekjxk7Mpu5mIQkRaKN-144" value="SideMenu" style="swimlane;fontStyle=1;align=center;verticalAlign=top;childLayout=stackLayout;horizontal=1;startSize=32;horizontalStack=0;resizeParent=1;resizeParentMax=0;resizeLast=0;collapsible=0;marginBottom=0;" vertex="1" parent="1">
          <mxGeometry x="4486" y="427" width="294" height="104" as="geometry" />
        </mxCell>
        <mxCell id="k8Ekjxk7Mpu5mIQkRaKN-145" value="+scaffoldKey GlobalKey&lt;ScaffoldState&gt;" style="text;strokeColor=none;fillColor=none;align=left;verticalAlign=top;spacingLeft=4;spacingRight=4;overflow=hidden;rotatable=0;points=[[0,0.5],[1,0.5]];portConstraint=eastwest;" vertex="1" parent="k8Ekjxk7Mpu5mIQkRaKN-144">
          <mxGeometry y="32" width="294" height="32" as="geometry" />
        </mxCell>
        <mxCell id="k8Ekjxk7Mpu5mIQkRaKN-146" style="line;strokeWidth=1;fillColor=none;align=left;verticalAlign=middle;spacingTop=-1;spacingLeft=3;spacingRight=3;rotatable=0;labelPosition=right;points=[];portConstraint=eastwest;strokeColor=inherit;" vertex="1" parent="k8Ekjxk7Mpu5mIQkRaKN-144">
          <mxGeometry y="64" width="294" height="8" as="geometry" />
        </mxCell>
        <mxCell id="k8Ekjxk7Mpu5mIQkRaKN-147" value="+createState() State" style="text;strokeColor=none;fillColor=none;align=left;verticalAlign=top;spacingLeft=4;spacingRight=4;overflow=hidden;rotatable=0;points=[[0,0.5],[1,0.5]];portConstraint=eastwest;" vertex="1" parent="k8Ekjxk7Mpu5mIQkRaKN-144">
          <mxGeometry y="72" width="294" height="32" as="geometry" />
        </mxCell>
        <mxCell id="k8Ekjxk7Mpu5mIQkRaKN-148" value="GlobalKey&lt;ScaffoldState&gt;" style="swimlane;fontStyle=1;align=center;verticalAlign=top;childLayout=stackLayout;horizontal=1;startSize=25;horizontalStack=0;resizeParent=1;resizeParentMax=0;resizeLast=0;collapsible=0;marginBottom=0;" vertex="1" parent="1">
          <mxGeometry x="4530" y="627" width="207" height="38" as="geometry" />
        </mxCell>
        <mxCell id="k8Ekjxk7Mpu5mIQkRaKN-149" style="line;strokeWidth=1;fillColor=none;align=left;verticalAlign=middle;spacingTop=-1;spacingLeft=3;spacingRight=3;rotatable=0;labelPosition=right;points=[];portConstraint=eastwest;strokeColor=inherit;" vertex="1" parent="k8Ekjxk7Mpu5mIQkRaKN-148">
          <mxGeometry y="25" width="207" height="13" as="geometry" />
        </mxCell>
        <mxCell id="k8Ekjxk7Mpu5mIQkRaKN-150" value="SideMenuState" style="swimlane;fontStyle=1;align=center;verticalAlign=top;childLayout=stackLayout;horizontal=1;startSize=29.75;horizontalStack=0;resizeParent=1;resizeParentMax=0;resizeLast=0;collapsible=0;marginBottom=0;" vertex="1" parent="1">
          <mxGeometry x="6160" y="416" width="222" height="127.75" as="geometry" />
        </mxCell>
        <mxCell id="k8Ekjxk7Mpu5mIQkRaKN-151" value="+navDrawerIndex int" style="text;strokeColor=none;fillColor=none;align=left;verticalAlign=top;spacingLeft=4;spacingRight=4;overflow=hidden;rotatable=0;points=[[0,0.5],[1,0.5]];portConstraint=eastwest;" vertex="1" parent="k8Ekjxk7Mpu5mIQkRaKN-150">
          <mxGeometry y="29.75" width="222" height="30" as="geometry" />
        </mxCell>
        <mxCell id="k8Ekjxk7Mpu5mIQkRaKN-152" style="line;strokeWidth=1;fillColor=none;align=left;verticalAlign=middle;spacingTop=-1;spacingLeft=3;spacingRight=3;rotatable=0;labelPosition=right;points=[];portConstraint=eastwest;strokeColor=inherit;" vertex="1" parent="k8Ekjxk7Mpu5mIQkRaKN-150">
          <mxGeometry y="59.75" width="222" height="8" as="geometry" />
        </mxCell>
        <mxCell id="k8Ekjxk7Mpu5mIQkRaKN-153" value="+build() Widget" style="text;strokeColor=none;fillColor=none;align=left;verticalAlign=top;spacingLeft=4;spacingRight=4;overflow=hidden;rotatable=0;points=[[0,0.5],[1,0.5]];portConstraint=eastwest;" vertex="1" parent="k8Ekjxk7Mpu5mIQkRaKN-150">
          <mxGeometry y="67.75" width="222" height="30" as="geometry" />
        </mxCell>
        <mxCell id="k8Ekjxk7Mpu5mIQkRaKN-154" value="+flatteredrouted() dynamic" style="text;strokeColor=none;fillColor=none;align=left;verticalAlign=top;spacingLeft=4;spacingRight=4;overflow=hidden;rotatable=0;points=[[0,0.5],[1,0.5]];portConstraint=eastwest;" vertex="1" parent="k8Ekjxk7Mpu5mIQkRaKN-150">
          <mxGeometry y="97.75" width="222" height="30" as="geometry" />
        </mxCell>
        <mxCell id="k8Ekjxk7Mpu5mIQkRaKN-155" value="Isdark" style="swimlane;fontStyle=1;align=center;verticalAlign=top;childLayout=stackLayout;horizontal=1;startSize=29.2;horizontalStack=0;resizeParent=1;resizeParentMax=0;resizeLast=0;collapsible=0;marginBottom=0;" vertex="1" parent="1">
          <mxGeometry x="737" y="439" width="137" height="66.2" as="geometry" />
        </mxCell>
        <mxCell id="k8Ekjxk7Mpu5mIQkRaKN-156" style="line;strokeWidth=1;fillColor=none;align=left;verticalAlign=middle;spacingTop=-1;spacingLeft=3;spacingRight=3;rotatable=0;labelPosition=right;points=[];portConstraint=eastwest;strokeColor=inherit;" vertex="1" parent="k8Ekjxk7Mpu5mIQkRaKN-155">
          <mxGeometry y="29.2" width="137" height="8" as="geometry" />
        </mxCell>
        <mxCell id="k8Ekjxk7Mpu5mIQkRaKN-157" value="+build() Widget" style="text;strokeColor=none;fillColor=none;align=left;verticalAlign=top;spacingLeft=4;spacingRight=4;overflow=hidden;rotatable=0;points=[[0,0.5],[1,0.5]];portConstraint=eastwest;" vertex="1" parent="k8Ekjxk7Mpu5mIQkRaKN-155">
          <mxGeometry y="37.2" width="137" height="29" as="geometry" />
        </mxCell>
        <mxCell id="k8Ekjxk7Mpu5mIQkRaKN-158" value="MyTextFormField" style="swimlane;fontStyle=1;align=center;verticalAlign=top;childLayout=stackLayout;horizontal=1;startSize=27.5;horizontalStack=0;resizeParent=1;resizeParentMax=0;resizeLast=0;collapsible=0;marginBottom=0;" vertex="1" parent="1">
          <mxGeometry x="1220" y="393" width="146" height="175.5" as="geometry" />
        </mxCell>
        <mxCell id="k8Ekjxk7Mpu5mIQkRaKN-159" value="+label String" style="text;strokeColor=none;fillColor=none;align=left;verticalAlign=top;spacingLeft=4;spacingRight=4;overflow=hidden;rotatable=0;points=[[0,0.5],[1,0.5]];portConstraint=eastwest;" vertex="1" parent="k8Ekjxk7Mpu5mIQkRaKN-158">
          <mxGeometry y="27.5" width="146" height="28" as="geometry" />
        </mxCell>
        <mxCell id="k8Ekjxk7Mpu5mIQkRaKN-160" value="+hint String" style="text;strokeColor=none;fillColor=none;align=left;verticalAlign=top;spacingLeft=4;spacingRight=4;overflow=hidden;rotatable=0;points=[[0,0.5],[1,0.5]];portConstraint=eastwest;" vertex="1" parent="k8Ekjxk7Mpu5mIQkRaKN-158">
          <mxGeometry y="55.5" width="146" height="28" as="geometry" />
        </mxCell>
        <mxCell id="k8Ekjxk7Mpu5mIQkRaKN-161" value="+helperText String" style="text;strokeColor=none;fillColor=none;align=left;verticalAlign=top;spacingLeft=4;spacingRight=4;overflow=hidden;rotatable=0;points=[[0,0.5],[1,0.5]];portConstraint=eastwest;" vertex="1" parent="k8Ekjxk7Mpu5mIQkRaKN-158">
          <mxGeometry y="83.5" width="146" height="28" as="geometry" />
        </mxCell>
        <mxCell id="k8Ekjxk7Mpu5mIQkRaKN-162" value="+icon IconData?" style="text;strokeColor=none;fillColor=none;align=left;verticalAlign=top;spacingLeft=4;spacingRight=4;overflow=hidden;rotatable=0;points=[[0,0.5],[1,0.5]];portConstraint=eastwest;" vertex="1" parent="k8Ekjxk7Mpu5mIQkRaKN-158">
          <mxGeometry y="111.5" width="146" height="28" as="geometry" />
        </mxCell>
        <mxCell id="k8Ekjxk7Mpu5mIQkRaKN-163" style="line;strokeWidth=1;fillColor=none;align=left;verticalAlign=middle;spacingTop=-1;spacingLeft=3;spacingRight=3;rotatable=0;labelPosition=right;points=[];portConstraint=eastwest;strokeColor=inherit;" vertex="1" parent="k8Ekjxk7Mpu5mIQkRaKN-158">
          <mxGeometry y="139.5" width="146" height="8" as="geometry" />
        </mxCell>
        <mxCell id="k8Ekjxk7Mpu5mIQkRaKN-164" value="+build() Widget" style="text;strokeColor=none;fillColor=none;align=left;verticalAlign=top;spacingLeft=4;spacingRight=4;overflow=hidden;rotatable=0;points=[[0,0.5],[1,0.5]];portConstraint=eastwest;" vertex="1" parent="k8Ekjxk7Mpu5mIQkRaKN-158">
          <mxGeometry y="147.5" width="146" height="28" as="geometry" />
        </mxCell>
        <mxCell id="k8Ekjxk7Mpu5mIQkRaKN-165" value="" style="curved=1;startArrow=diamondThin;startSize=14;startFill=0;endArrow=none;exitX=0.49717027559055116;exitY=1;entryX=-0.0005859375;entryY=0.42783968431178343;rounded=0;" edge="1" parent="1" source="k8Ekjxk7Mpu5mIQkRaKN-1" target="k8Ekjxk7Mpu5mIQkRaKN-7">
          <mxGeometry relative="1" as="geometry">
            <Array as="points">
              <mxPoint x="163" y="602" />
            </Array>
          </mxGeometry>
        </mxCell>
        <mxCell id="k8Ekjxk7Mpu5mIQkRaKN-166" value="" style="curved=1;startArrow=block;startSize=16;startFill=0;endArrow=none;exitX=0.6084090676329446;exitY=0.9913793103448276;entryX=0.5031934306569343;entryY=-0.006172839506172839;rounded=0;" edge="1" parent="1" source="k8Ekjxk7Mpu5mIQkRaKN-20" target="k8Ekjxk7Mpu5mIQkRaKN-17">
          <mxGeometry relative="1" as="geometry">
            <Array as="points">
              <mxPoint x="1101" y="356" />
            </Array>
          </mxGeometry>
        </mxCell>
        <mxCell id="k8Ekjxk7Mpu5mIQkRaKN-167" value="" style="curved=1;startArrow=block;startSize=16;startFill=0;endArrow=none;exitX=0.5042201450892857;exitY=0.9913793103448276;entryX=0.49746469350961536;entryY=0;rounded=0;" edge="1" parent="1" source="k8Ekjxk7Mpu5mIQkRaKN-51" target="k8Ekjxk7Mpu5mIQkRaKN-47">
          <mxGeometry relative="1" as="geometry">
            <Array as="points" />
          </mxGeometry>
        </mxCell>
        <mxCell id="k8Ekjxk7Mpu5mIQkRaKN-168" value="" style="curved=1;startArrow=block;startSize=16;startFill=0;endArrow=none;exitX=0.9999708488805971;exitY=0.6721624792137165;entryX=0.9605466663699495;entryY=0;rounded=0;" edge="1" parent="1" source="k8Ekjxk7Mpu5mIQkRaKN-59" target="k8Ekjxk7Mpu5mIQkRaKN-53">
          <mxGeometry relative="1" as="geometry">
            <Array as="points">
              <mxPoint x="4284" y="356" />
            </Array>
          </mxGeometry>
        </mxCell>
        <mxCell id="k8Ekjxk7Mpu5mIQkRaKN-169" value="" style="curved=1;startArrow=block;startSize=16;startFill=0;endArrow=none;exitX=0.9999708488805971;exitY=0.6753597055892026;entryX=0.2517427563646107;entryY=-0.006172839506172839;rounded=0;" edge="1" parent="1" source="k8Ekjxk7Mpu5mIQkRaKN-59" target="k8Ekjxk7Mpu5mIQkRaKN-61">
          <mxGeometry relative="1" as="geometry">
            <Array as="points">
              <mxPoint x="4264" y="356" />
            </Array>
          </mxGeometry>
        </mxCell>
        <mxCell id="k8Ekjxk7Mpu5mIQkRaKN-170" value="" style="curved=1;startArrow=block;startSize=16;startFill=0;endArrow=none;exitX=0.9999708488805971;exitY=0.7082802418528155;entryX=0.7935319958038294;entryY=0;rounded=0;" edge="1" parent="1" source="k8Ekjxk7Mpu5mIQkRaKN-59" target="k8Ekjxk7Mpu5mIQkRaKN-64">
          <mxGeometry relative="1" as="geometry">
            <Array as="points">
              <mxPoint x="4092" y="356" />
            </Array>
          </mxGeometry>
        </mxCell>
        <mxCell id="k8Ekjxk7Mpu5mIQkRaKN-171" value="" style="curved=1;startArrow=block;startSize=16;startFill=0;endArrow=none;exitX=1.0012090773809523;exitY=0.8243982125605409;entryX=0.5009889240506329;entryY=0;rounded=0;" edge="1" parent="1" source="k8Ekjxk7Mpu5mIQkRaKN-72" target="k8Ekjxk7Mpu5mIQkRaKN-68">
          <mxGeometry relative="1" as="geometry">
            <Array as="points">
              <mxPoint x="5952" y="356" />
            </Array>
          </mxGeometry>
        </mxCell>
        <mxCell id="k8Ekjxk7Mpu5mIQkRaKN-172" value="" style="curved=1;startArrow=block;startSize=16;startFill=0;endArrow=none;exitX=0.9846643518518519;exitY=0.6306699196269235;entryX=0.49830572289156627;entryY=0;rounded=0;" edge="1" parent="1" source="k8Ekjxk7Mpu5mIQkRaKN-82" target="k8Ekjxk7Mpu5mIQkRaKN-74">
          <mxGeometry relative="1" as="geometry">
            <Array as="points">
              <mxPoint x="7568" y="356" />
            </Array>
          </mxGeometry>
        </mxCell>
        <mxCell id="k8Ekjxk7Mpu5mIQkRaKN-173" value="" style="curved=1;startArrow=block;startSize=16;startFill=0;endArrow=none;exitX=0.876910958866466;exitY=0.9913793103448276;entryX=0.5003406613372093;entryY=0;rounded=0;" edge="1" parent="1" source="k8Ekjxk7Mpu5mIQkRaKN-72" target="k8Ekjxk7Mpu5mIQkRaKN-84">
          <mxGeometry relative="1" as="geometry">
            <Array as="points">
              <mxPoint x="5658" y="356" />
            </Array>
          </mxGeometry>
        </mxCell>
        <mxCell id="k8Ekjxk7Mpu5mIQkRaKN-174" value="" style="curved=1;startArrow=block;startSize=16;startFill=0;endArrow=none;exitX=0.9846643518518519;exitY=0.774692646112647;entryX=0.4989483173076923;entryY=0;rounded=0;" edge="1" parent="1" source="k8Ekjxk7Mpu5mIQkRaKN-82" target="k8Ekjxk7Mpu5mIQkRaKN-88">
          <mxGeometry relative="1" as="geometry">
            <Array as="points">
              <mxPoint x="7264" y="356" />
            </Array>
          </mxGeometry>
        </mxCell>
        <mxCell id="k8Ekjxk7Mpu5mIQkRaKN-175" value="" style="curved=1;startArrow=block;startSize=16;startFill=0;endArrow=none;exitX=0.9999708488805971;exitY=0.7128989171756388;entryX=0.01858198326508699;entryY=0;rounded=0;" edge="1" parent="1" source="k8Ekjxk7Mpu5mIQkRaKN-59" target="k8Ekjxk7Mpu5mIQkRaKN-53">
          <mxGeometry relative="1" as="geometry">
            <Array as="points">
              <mxPoint x="4072" y="356" />
            </Array>
          </mxGeometry>
        </mxCell>
        <mxCell id="k8Ekjxk7Mpu5mIQkRaKN-176" value="" style="curved=1;startArrow=block;startSize=16;startFill=0;endArrow=none;exitX=0.6824829171338413;exitY=0.9913793103448276;entryX=0.0006675237341772152;entryY=0.08143736015828076;rounded=0;" edge="1" parent="1" source="k8Ekjxk7Mpu5mIQkRaKN-72" target="k8Ekjxk7Mpu5mIQkRaKN-68">
          <mxGeometry relative="1" as="geometry">
            <Array as="points">
              <mxPoint x="5506" y="356" />
            </Array>
          </mxGeometry>
        </mxCell>
        <mxCell id="k8Ekjxk7Mpu5mIQkRaKN-177" value="" style="curved=1;startArrow=block;startSize=16;startFill=0;endArrow=none;exitX=0.9114378943521068;exitY=0.9913793103448276;entryX=-0.0016001506024096385;entryY=0.3288921903951663;rounded=0;" edge="1" parent="1" source="k8Ekjxk7Mpu5mIQkRaKN-82" target="k8Ekjxk7Mpu5mIQkRaKN-74">
          <mxGeometry relative="1" as="geometry">
            <Array as="points">
              <mxPoint x="7112" y="356" />
            </Array>
          </mxGeometry>
        </mxCell>
        <mxCell id="k8Ekjxk7Mpu5mIQkRaKN-178" value="" style="curved=1;startArrow=block;startSize=16;startFill=0;endArrow=none;exitX=0.9999708488805971;exitY=0.8090036474916659;entryX=0.4977189781021898;entryY=0;rounded=0;" edge="1" parent="1" source="k8Ekjxk7Mpu5mIQkRaKN-59" target="k8Ekjxk7Mpu5mIQkRaKN-94">
          <mxGeometry relative="1" as="geometry">
            <Array as="points">
              <mxPoint x="3788" y="356" />
            </Array>
          </mxGeometry>
        </mxCell>
        <mxCell id="k8Ekjxk7Mpu5mIQkRaKN-179" value="" style="curved=1;startArrow=block;startSize=16;startFill=0;endArrow=none;exitX=0.48805487540122405;exitY=0.9913793103448276;entryX=0.5003004807692307;entryY=-0.006172839506172839;rounded=0;" edge="1" parent="1" source="k8Ekjxk7Mpu5mIQkRaKN-72" target="k8Ekjxk7Mpu5mIQkRaKN-98">
          <mxGeometry relative="1" as="geometry">
            <Array as="points">
              <mxPoint x="5353" y="356" />
            </Array>
          </mxGeometry>
        </mxCell>
        <mxCell id="k8Ekjxk7Mpu5mIQkRaKN-180" value="" style="curved=1;startArrow=block;startSize=16;startFill=0;endArrow=none;exitX=0.45867318149174496;exitY=0.9913793103448276;entryX=0.4994979919678715;entryY=-0.003937007874015748;rounded=0;" edge="1" parent="1" source="k8Ekjxk7Mpu5mIQkRaKN-82" target="k8Ekjxk7Mpu5mIQkRaKN-101">
          <mxGeometry relative="1" as="geometry">
            <Array as="points">
              <mxPoint x="6959" y="356" />
            </Array>
          </mxGeometry>
        </mxCell>
        <mxCell id="k8Ekjxk7Mpu5mIQkRaKN-181" value="" style="curved=1;startArrow=block;startSize=16;startFill=0;endArrow=none;exitX=0.9999708488805971;exitY=0.9360533823504011;entryX=0.5038777372262774;entryY=0;rounded=0;" edge="1" parent="1" source="k8Ekjxk7Mpu5mIQkRaKN-59" target="k8Ekjxk7Mpu5mIQkRaKN-106">
          <mxGeometry relative="1" as="geometry">
            <Array as="points">
              <mxPoint x="3601" y="356" />
            </Array>
          </mxGeometry>
        </mxCell>
        <mxCell id="k8Ekjxk7Mpu5mIQkRaKN-182" value="" style="curved=1;startArrow=block;startSize=16;startFill=0;endArrow=none;exitX=0.8376474836689123;exitY=0.9913793103448276;entryX=0.5027372262773723;entryY=-0.006172839506172839;rounded=0;" edge="1" parent="1" source="k8Ekjxk7Mpu5mIQkRaKN-59" target="k8Ekjxk7Mpu5mIQkRaKN-110">
          <mxGeometry relative="1" as="geometry">
            <Array as="points">
              <mxPoint x="3414" y="356" />
            </Array>
          </mxGeometry>
        </mxCell>
        <mxCell id="k8Ekjxk7Mpu5mIQkRaKN-183" value="" style="curved=1;startArrow=block;startSize=16;startFill=0;endArrow=none;exitX=0.6132487880886436;exitY=0.9913793103448276;entryX=0.5015967153284672;entryY=0;rounded=0;" edge="1" parent="1" source="k8Ekjxk7Mpu5mIQkRaKN-59" target="k8Ekjxk7Mpu5mIQkRaKN-113">
          <mxGeometry relative="1" as="geometry">
            <Array as="points">
              <mxPoint x="3227" y="356" />
            </Array>
          </mxGeometry>
        </mxCell>
        <mxCell id="k8Ekjxk7Mpu5mIQkRaKN-184" value="" style="curved=1;startArrow=block;startSize=16;startFill=0;endArrow=none;exitX=0.3888500925083714;exitY=0.9913793103448276;entryX=0.5004562043795621;entryY=-0.006172839506172839;rounded=0;" edge="1" parent="1" source="k8Ekjxk7Mpu5mIQkRaKN-59" target="k8Ekjxk7Mpu5mIQkRaKN-117">
          <mxGeometry relative="1" as="geometry">
            <Array as="points">
              <mxPoint x="3040" y="356" />
            </Array>
          </mxGeometry>
        </mxCell>
        <mxCell id="k8Ekjxk7Mpu5mIQkRaKN-185" value="" style="curved=1;startArrow=block;startSize=16;startFill=0;endArrow=none;exitX=0.16445139692810265;exitY=0.9913793103448276;entryX=0.49931569343065696;entryY=-0.006172839506172839;rounded=0;" edge="1" parent="1" source="k8Ekjxk7Mpu5mIQkRaKN-59" target="k8Ekjxk7Mpu5mIQkRaKN-120">
          <mxGeometry relative="1" as="geometry">
            <Array as="points">
              <mxPoint x="2852" y="356" />
            </Array>
          </mxGeometry>
        </mxCell>
        <mxCell id="k8Ekjxk7Mpu5mIQkRaKN-186" value="" style="curved=1;startArrow=block;startSize=16;startFill=0;endArrow=none;exitX=0.0021280317164179105;exitY=0.8630166278499043;entryX=0.49936721183800625;entryY=-0.006172839506172839;rounded=0;" edge="1" parent="1" source="k8Ekjxk7Mpu5mIQkRaKN-59" target="k8Ekjxk7Mpu5mIQkRaKN-123">
          <mxGeometry relative="1" as="geometry">
            <Array as="points">
              <mxPoint x="2573" y="356" />
            </Array>
          </mxGeometry>
        </mxCell>
        <mxCell id="k8Ekjxk7Mpu5mIQkRaKN-187" value="" style="curved=1;startArrow=block;startSize=16;startFill=0;endArrow=none;exitX=0.0021280317164179105;exitY=0.7209466242893036;entryX=0.49938246783088236;entryY=-0.006172839506172839;rounded=0;" edge="1" parent="1" source="k8Ekjxk7Mpu5mIQkRaKN-59" target="k8Ekjxk7Mpu5mIQkRaKN-126">
          <mxGeometry relative="1" as="geometry">
            <Array as="points">
              <mxPoint x="2227" y="356" />
            </Array>
          </mxGeometry>
        </mxCell>
        <mxCell id="k8Ekjxk7Mpu5mIQkRaKN-188" value="" style="curved=1;startArrow=block;startSize=16;startFill=0;endArrow=none;exitX=0.015314980158730158;exitY=0.9913793103448276;entryX=0.5011821546052632;entryY=-0.006172839506172839;rounded=0;" edge="1" parent="1" source="k8Ekjxk7Mpu5mIQkRaKN-72" target="k8Ekjxk7Mpu5mIQkRaKN-129">
          <mxGeometry relative="1" as="geometry">
            <Array as="points">
              <mxPoint x="4982" y="356" />
            </Array>
          </mxGeometry>
        </mxCell>
        <mxCell id="k8Ekjxk7Mpu5mIQkRaKN-189" value="" style="curved=1;startArrow=block;startSize=16;startFill=0;endArrow=none;exitX=-0.0078125;exitY=0.7226621424841064;entryX=0.4994451349431818;entryY=-0.006172839506172839;rounded=0;" edge="1" parent="1" source="k8Ekjxk7Mpu5mIQkRaKN-82" target="k8Ekjxk7Mpu5mIQkRaKN-132">
          <mxGeometry relative="1" as="geometry">
            <Array as="points">
              <mxPoint x="6609" y="356" />
            </Array>
          </mxGeometry>
        </mxCell>
        <mxCell id="k8Ekjxk7Mpu5mIQkRaKN-190" value="" style="curved=1;startArrow=block;startSize=16;startFill=0;endArrow=none;exitX=0.0021280317164179105;exitY=0.6686404088106971;entryX=0.4993769171779141;entryY=-0.006172839506172839;rounded=0;" edge="1" parent="1" source="k8Ekjxk7Mpu5mIQkRaKN-59" target="k8Ekjxk7Mpu5mIQkRaKN-135">
          <mxGeometry relative="1" as="geometry">
            <Array as="points">
              <mxPoint x="1959" y="356" />
            </Array>
          </mxGeometry>
        </mxCell>
        <mxCell id="k8Ekjxk7Mpu5mIQkRaKN-191" value="" style="curved=1;startArrow=block;startSize=16;startFill=0;endArrow=none;exitX=0.0021280317164179105;exitY=0.6413016522889425;entryX=0.4991714015151515;entryY=-0.006172839506172839;rounded=0;" edge="1" parent="1" source="k8Ekjxk7Mpu5mIQkRaKN-59" target="k8Ekjxk7Mpu5mIQkRaKN-138">
          <mxGeometry relative="1" as="geometry">
            <Array as="points">
              <mxPoint x="1745" y="356" />
            </Array>
          </mxGeometry>
        </mxCell>
        <mxCell id="k8Ekjxk7Mpu5mIQkRaKN-192" value="" style="curved=1;startArrow=block;startSize=16;startFill=0;endArrow=none;exitX=0.0021280317164179105;exitY=0.6199017977004173;entryX=0.49892925126903553;entryY=-0.006172839506172839;rounded=0;" edge="1" parent="1" source="k8Ekjxk7Mpu5mIQkRaKN-59" target="k8Ekjxk7Mpu5mIQkRaKN-141">
          <mxGeometry relative="1" as="geometry">
            <Array as="points">
              <mxPoint x="1514" y="356" />
            </Array>
          </mxGeometry>
        </mxCell>
        <mxCell id="k8Ekjxk7Mpu5mIQkRaKN-193" value="" style="curved=1;startArrow=diamondThin;startSize=14;startFill=0;endArrow=none;exitX=0.5010097789115646;exitY=1;entryX=0.49901871980676327;entryY=0;rounded=0;" edge="1" parent="1" source="k8Ekjxk7Mpu5mIQkRaKN-144" target="k8Ekjxk7Mpu5mIQkRaKN-148">
          <mxGeometry relative="1" as="geometry">
            <Array as="points" />
          </mxGeometry>
        </mxCell>
        <mxCell id="k8Ekjxk7Mpu5mIQkRaKN-194" value="" style="curved=1;startArrow=block;startSize=16;startFill=0;endArrow=none;exitX=0.00040302579365079363;exitY=0.7602435461335865;entryX=0.5010097789115646;entryY=0;rounded=0;" edge="1" parent="1" source="k8Ekjxk7Mpu5mIQkRaKN-72" target="k8Ekjxk7Mpu5mIQkRaKN-144">
          <mxGeometry relative="1" as="geometry">
            <Array as="points">
              <mxPoint x="4633" y="356" />
            </Array>
          </mxGeometry>
        </mxCell>
        <mxCell id="k8Ekjxk7Mpu5mIQkRaKN-195" value="" style="curved=1;startArrow=block;startSize=16;startFill=0;endArrow=none;exitX=-0.0078125;exitY=0.6108866609015241;entryX=0.5025337837837838;entryY=-0.003937007874015748;rounded=0;" edge="1" parent="1" source="k8Ekjxk7Mpu5mIQkRaKN-82" target="k8Ekjxk7Mpu5mIQkRaKN-150">
          <mxGeometry relative="1" as="geometry">
            <Array as="points">
              <mxPoint x="6272" y="356" />
            </Array>
          </mxGeometry>
        </mxCell>
        <mxCell id="k8Ekjxk7Mpu5mIQkRaKN-196" value="" style="curved=1;startArrow=block;startSize=16;startFill=0;endArrow=none;exitX=0.27373194325231126;exitY=0.9913793103448276;entryX=0.49737682481751827;entryY=-0.006172839506172839;rounded=0;" edge="1" parent="1" source="k8Ekjxk7Mpu5mIQkRaKN-20" target="k8Ekjxk7Mpu5mIQkRaKN-155">
          <mxGeometry relative="1" as="geometry">
            <Array as="points">
              <mxPoint x="805" y="356" />
            </Array>
          </mxGeometry>
        </mxCell>
        <mxCell id="k8Ekjxk7Mpu5mIQkRaKN-197" value="" style="curved=1;startArrow=diamondThin;startSize=14;startFill=0;endArrow=none;exitX=0.4974850171232877;exitY=0.9971098265895953;entryX=1.00302734375;entryY=0.438881775633106;rounded=0;" edge="1" parent="1" source="k8Ekjxk7Mpu5mIQkRaKN-158" target="k8Ekjxk7Mpu5mIQkRaKN-7">
          <mxGeometry relative="1" as="geometry">
            <Array as="points">
              <mxPoint x="1293" y="602" />
            </Array>
          </mxGeometry>
        </mxCell>
        <mxCell id="k8Ekjxk7Mpu5mIQkRaKN-198" value="" style="curved=1;startArrow=block;startSize=16;startFill=0;endArrow=none;exitX=0.0021280317164179105;exitY=0.6044235626207102;entryX=0.4974850171232877;entryY=-0.002890173410404624;rounded=0;" edge="1" parent="1" source="k8Ekjxk7Mpu5mIQkRaKN-59" target="k8Ekjxk7Mpu5mIQkRaKN-158">
          <mxGeometry relative="1" as="geometry">
            <Array as="points">
              <mxPoint x="1293" y="356" />
            </Array>
          </mxGeometry>
        </mxCell>
      </root>
    </mxGraphModel>
  </diagram>
</mxfile>
